<?xml version="1.0" encoding="UTF-8"?>
<svg id="_レイヤー_2" data-name="レイヤー_2" xmlns="http://www.w3.org/2000/svg" xmlns:xlink="http://www.w3.org/1999/xlink" viewBox="0 0 102.42 315.91">
  <defs>
    <style>
      .cls-1 {
        fill: #c1ab04;
      }

      .cls-2 {
        fill: url(#_名称未設定グラデーション_4);
      }

      .cls-3 {
        fill: #fff;
      }

      .cls-4 {
        fill: url(#_新規グラデーションスウォッチ_10);
      }

      .cls-5 {
        fill: url(#_新規グラデーションスウォッチ_10-2);
      }
    </style>
    <linearGradient id="_新規グラデーションスウォッチ_10" data-name="新規グラデーションスウォッチ 10" x1="317.71" y1="686.6" x2="336.3" y2="686.6" gradientTransform="translate(184.56 -477.86) rotate(169.73) scale(1.04 -1.06) skewX(-3.67)" gradientUnits="userSpaceOnUse">
      <stop offset="0" stop-color="#c1ab04"/>
      <stop offset="1" stop-color="#e7e1bd"/>
    </linearGradient>
    <linearGradient id="_新規グラデーションスウォッチ_10-2" data-name="新規グラデーションスウォッチ 10" x1="65.33" y1="253.15" x2="7.57" y2="264.87" gradientTransform="matrix(1,0,0,1,0,0)" xlink:href="#_新規グラデーションスウォッチ_10"/>
    <linearGradient id="_名称未設定グラデーション_4" data-name="名称未設定グラデーション 4" x1="84.23" y1="103.36" x2="72.34" y2="92.79" gradientUnits="userSpaceOnUse">
      <stop offset=".56" stop-color="#c1ab04"/>
      <stop offset="1" stop-color="#e7e1bd"/>
    </linearGradient>
  </defs>
  <path class="cls-1" d="M82.38,141.79c9.73,16.12,12.66,36.48,6.29,54.37-2.16,5.81-5.34,11.77-10.1,15.68,4.25-4.05,7.12-9.31,9.2-14.76,6.81-18.72,4.28-38.2-5.39-55.29h0Z"/>
  <path class="cls-4" d="M15.23,284.87c.34.17.74.45,1.22.92,0,0-.56-.18-.92.01,0,0,1.11.2,1.64.78,0,0,2.04,2.16,2.25,2.81,0,0-1.03-.48-1.58-.07,0,0,1.14.05,2.11.7,0,0,2.55,2.84,3.9,3.68,0,0-1.63-.15-2.24-.42,0,0,1.5.87,2.69,1.08,0,0,.95.22,2.36,1.37,0,0,2.86,2.08,4.2,1.88,0,0-1.17.79-2.88.26,0,0,1.21.84,2.76.52,0,0,.81-.18,1.72.12.49.16,1.02.47,1.45,1.03,0,0-1.01.83-2.1.71.16.02,1.44.15,2.63-.32,0,0,1.21,1.05,1.83,2.31,0,0-2.9,4.24-6.05,1.74,0,0,.34.79,1.54,1.36,0,0-1.42-.22-2.2.03,0,0-3.94,1.48-5.12-1.58,0,0-.05.79.48,1.64,0,0-3.04-2.4-4.32-3,0,0-3.17-1.1-2.83-5.07-.02.06-.65,1.54-.26,2.68,0,0-4.43-3.57-2.11-7.81,0,0-.67.74-.87,1.41,0,0-1.38-2.37-.99-4.12,0,0,.11-.66.71-1.65,0,0-.71.46-.93,1.27,0,0-.45-4.02.77-4.44.15,1.2.42,2.38.8,3.53.39,1.16.89,2.28,1.5,3.34.61,1.06,1.33,2.06,2.15,2.98.41.46.83.9,1.28,1.32.45.42.91.82,1.4,1.19.48.37.98.74,1.49,1.07.25.17.52.33.77.49.13.08.26.15.39.23.13.08.26.16.4.23,2.13,1.18,4.41,2.06,6.73,2.7-2.31-.7-4.56-1.62-6.66-2.84-.13-.07-.26-.16-.39-.23-.13-.08-.26-.16-.39-.24-.25-.17-.51-.33-.76-.5-.5-.34-.98-.71-1.45-1.09-.47-.38-.92-.79-1.35-1.21-.43-.42-.84-.87-1.23-1.32-.78-.92-1.46-1.91-2.04-2.96-.58-1.05-1.04-2.15-1.39-3.28-.35-1.13-.93-2.47-1.05-3.63-.03-.02-.32-2.37-.33-2.88,0-.3,0-.6,0-.91,0-.15.01-.3.02-.45,0-.06.31,1.14.31,1.14,0,0,.64,2.79.92,3.48Z"/>
  <path class="cls-5" d="M60.43,229.83c-1.97,2.69-4.51,4.89-7.07,6.99-2.57,2.1-5.22,4.11-7.86,6.12-5.33,3.95-10.67,7.88-15.77,12.11-5.04,4.27-9.92,8.85-13.62,14.34-1.83,2.74-3.32,5.76-3.99,9-.69,3.23-.45,6.66.78,9.74l-.05.02c-1.27-3.08-1.56-6.53-.89-9.8.64-3.28,2.11-6.33,3.92-9.12,3.68-5.57,8.55-10.21,13.57-14.53,5.05-4.32,10.39-8.28,15.72-12.22,2.68-1.95,5.36-3.9,7.97-5.94,2.58-2.06,5.17-4.16,7.25-6.75l.05.03Z"/>
  <path class="cls-1" d="M67.42,8.28c-21.25,20.71-25.48,51.85-15.94,79.19,2.95,8.99,7.48,17.55,12.68,25.33-5.86-7.5-10.3-16.1-13.12-25.19-4.35-13.56-6.17-28.14-3.43-42.21,2.74-13.86,9.45-27.54,19.81-37.12h0Z"/>
  <path d="M66.31,175.44c-1.07,0-2-3.2-2-5.13,0-1.24.16-1.82.82-4.24.35-1.27.35-1.78.35-2.14,0-.62-.11-1.17-.21-1.45-.05-.14-.11-.28-.11-.32.84.05,1.62,1.78,1.62,2.43,0,.19,0,.2-.36.84-.24.46-1.55,3.37-1.55,5.19,0,.66.23,1.33.66,1.33.46,0,.66-.45,1.09-1.64.03-.09.07-.19.1-.27-.01.14-.09.56-.16.97-.14.8-.29,1.71-.29,2.01s.16.7.3,1.03c.17.34.25.65.25.88,0,.33-.27.53-.51.53ZM73.69,174.65c-1.86,0-2.58-.46-3-.85-.36-.36-.57-.69-.57-.89,0,0,0-.01,0-.01.03,0,.15.08.21.12.07.05.13.08.16.1.6.31,1.44.35,2.19.35.52,0,1.24,0,1.74-.06.13,0,.51-.05.89-.08.4-.04.79-.07.84-.08.73,0,.77.44.77.53,0,.59-.32.87-3.23.87ZM73.69,164.94c-2.18,0-3.29-1.14-3.33-1.33.03.05.1.07.19.1.1.03.21.06.33.09.47.1,1.01.12,1.38.12,1.03,0,1.96-.21,2.23-.31.47-.17.59-.22.71-.22.37.05.79.33.79.72,0,.61-1.24.83-2.3.83Z"/>
  <g>
    <g>
      <path d="M30.57,150.85c-1.7,0-2.54-.3-3.13-.6-.97-.48-1.63-1.42-1.63-2.33,0-1.96,2.1-3.01,4.08-3.01.43,0,.99.03,2.1.35l.22.06c1.03.3,1.17.34,1.45.34.31,0,.84-.16.84-.78,0-1.33-2.7-4.39-3.35-4.39-.07,0-.25.06-1.15.37-.56.19-1.19.42-1.4.46-.54.13-1.05.14-1.2.14-2.01,0-2.77-1.5-2.77-1.76,0,0,.01,0,.02,0,.09,0,.33.12.54.23l.21.1c.72.35,1.49.55,2.11.55.67,0,2.24-.32,2.24-.82,0-.16-.16-.37-.97-.93-.56-.39-1.21-1.02-1.21-1.51,0-.59.52-.81.85-.81.37,0,.55.1,1.38.59-.29-.16-.41-.18-.55-.18-.22,0-.52.15-.52.5,0,.56.77,1.17.93,1.28.41.32.96.7,1.24.7.18,0,.88-.24.88-.78,0-.35-.15-.45-.76-.82-.39-.24-.68-.41-.9-.54.36.18.88.35,1.7.35h1.04c.19,0,.34,0,.41,0,.49.04.55.42.55.57,0,.41-.8,1.07-1.14,1.27-.57.36-.67.42-.67.64,0,.2.16.38.29.49.98.86,3.58,3.17,3.58,5.13,0,1.1-.89,1.19-1.17,1.19-.31,0-.42-.06-1.56-.69-1.33-.74-2.46-1.08-3.5-1.08-1.94,0-2.92,1.57-2.92,2.44,0,1.23,1.09,1.91,3.08,1.91.26,0,1.25-.1,1.77-.15.16-.02.27-.03.29-.03h.1c.49,0,.72.37.72.63,0,.82-1.48.91-2.12.91Z"/>
      <path d="M26.9,167.95c-.47,0-.54-.28-.75-1.36,0-.05-.52-2.33-.92-2.33-.19,0-.22.11-.37.64-.2.68-.52,1.01-.95,1.01-.39,0-.57-.35-.57-.59,0-.62.6-1.69.82-2.09l.08-.16c.1-.18.23-.43.23-.63,0-.16-.14-.63-.45-1.5-.44-1.13-.46-1.25-.46-1.57,0-.79.52-1.3.89-1.41l.35-.11c1.21-.37,1.82-.55,2.05-.73.18-.12.2-.34.2-.69,0-.93-.06-1.94-.53-2.96-.03-.06-.12-.19-.21-.34-.12-.18-.35-.52-.37-.61.01,0,.11-.05.32-.05.61,0,1.74.95,1.74,1.19,0,.08-.07.47-.12.73-.04.21-.07.4-.08.47-.02.12-.1.92-.1,1.44,0,.47.09.62.5.82.17.09.22.16.22.27,0,0,0,.23-.15.43-.49.67-.5.69-.5.8v.14l.2.06c.1,0,.15-.03.59-.46.83-.79,3.34-3.21,5.18-3.21,1.49,0,1.8,1.21,1.8,2.22,0,.65-.08,1.52-.24,2.52-.29,1.96-.32,2.3-.32,3,0,.54,0,1.99,1.61,1.99.34,0,1.23,0,2.19-1.04.23-.27.32-.29.32-.29-.05.3-1.09,2.45-3.08,2.45-1.44,0-2.2-.95-2.2-2.75,0-.47.02-.68.24-1.84.33-1.76.54-3.65.54-4.17,0-1-.46-1.51-1.37-1.51-1.46,0-3.17,1.43-4.5,2.68-1.35,1.27-1.57,2.12-1.57,4.17,0,.84.06,1.99.16,2.58l.1.64c.11.72.14.88.14,1.18,0,.8-.25.97-.63.97ZM26.28,161.82c-.36,0-.92,1.52-.92,1.67,0,.43.61,1.57.84,1.57q.28,0,.28-2.22c0-.06.02-.29.03-.46,0-.12.01-.21.01-.23,0-.28-.15-.32-.24-.32ZM26.34,158.09c-.18,0-2.36.41-2.36,1.55,0,.55.43,2.32.8,2.32.16,0,.3-.18.35-.28.04-.09.57-1.13.89-1.75l.32-.63c.32-.65.42-.87.36-1.01-.03-.08-.12-.21-.35-.21Z"/>
      <path d="M32.39,183.69c-2.6,0-3.92-1.38-3.92-4.1,0-1.87.37-5.33,2.85-7.53.52-.39.52-.48.52-.52,0-.07-.03-.18-.26-.18-1.18,0-5.39,1.82-5.96,2.14-.28.16-.45.24-.62.24-.56,0-1.17-.51-1.45-1-.13-.22-.14-.35-.12-.38.11.02.3.06.44.09.12.03.18.04.23.04.87,0,1.15-.07,3.91-.86l.24-.07c1.82-.51,6.08-1.71,7.33-1.71.56,0,1.45.22,1.45.81,0,.41-.43.59-.65.59-.13,0-.48-.06-.82-.11-.35-.06-.69-.11-.81-.11-2.64,0-5.48,2.37-5.48,7.58,0,3.41,1.32,3.69,2.56,3.69.17,0,.73-.04,1.2-.07.33-.02.62-.05.69-.05.32,0,.85.08.85.59,0,.9-2.07.91-2.16.91Z"/>
      <path d="M27.83,196.1c-1.23,0-3.63-2.02-3.63-5.73,0-.28.07-1.05.14-1.8.07-.75.14-1.45.14-1.71,0-.43-.08-.97-.14-1.19l-.04-.12c-.11-.38-.12-.43-.12-.51.78.06,1.64,1.55,1.64,2.04,0,.09-.02.14-.11.4l-.12.35c-.29.81-.48,1.56-.48,2.61,0,2.08,1.07,3.59,1.79,3.59.43,0,.54-.17,1.13-1.16.17-.27.42-.58.5-.61-.05.08-.09.32-.11.37-.22.93-.26,1.12-.26,1.55,0,.38.07.66.12.83l.03.11c.04.15.12.44.12.5,0,.31-.36.47-.61.47ZM36.42,192.49c-.55,0-.83-.4-.83-1.19,0-1.64,0-2.54-1.09-3.63-.05-.05-.17-.15-.3-.26-.2-.17-.57-.48-.62-.57.05.08,1.16.14,1.98.8,1.06.85,1.71,2.26,1.71,3.68,0,.79-.28,1.17-.85,1.17Z"/>
      <path d="M35.13,213.79c-2.62,0-5.75-.55-5.75-3.17,0-.31.05-.54.1-.66.02.06.05.16.09.31.5,2.06,3.12,2.27,4.22,2.27.17,0,.65-.04,1.12-.07.45-.03.89-.07,1.04-.07.61,0,1.45.3,1.45.85,0,.41-.53.53-2.28.53ZM23.86,213.27c-.38,0-.39-.66-.39-.73,0-.2.1-.4.7-1.52,2.06-3.91,2.64-7.34,2.64-7.37,0-.34-.2-.34-.86-.34-.31,0-1.04,0-1.7-.34-.53-.26-.85-.68-.93-.87.04.04.1.06.14.08.08.04.16.07.2.08.31.1,1.13.22,1.8.22.01,0,1.26,0,1.5-.21.24-.21.27-1.72.27-1.73,0-.57-.09-1.02-.26-1.3l-.11-.13c-.1-.11-.4-.45-.42-.54,0-.07.27-.3.75-.3.82,0,1.44.76,1.45.91,0,.03-.06.16-.1.24-.08.18-.12.28-.12.35,0,.56,1.83.86,1.93.86.04,0,.16,0,.29-.02.13,0,.27-.02.33-.02.25,0,.51.06.51.47,0,.99-1.54,1.54-2.89,1.91-.68.18-.84.22-.93.66-.98,4.17-1.02,4.32-1.4,5.49l-.04.13c-1.34,4.03-2.03,4.03-2.32,4.03ZM28.54,200.32c-.25,0-.32.18-.36.35l-.07.39c-.02.14-.05.27-.11.54-.02.14-.04.26.04.35l.04.05.14.03c.09,0,1.75-.52,1.75-.94,0-.35-1.23-.78-1.43-.78ZM33.87,205.42c.45-.41.65-.6.65-.77,0-.11,0-.46-1.85-.46-.31,0-.91.01-1.45.08-.1.02-.45.06-.59.08.36-.26,1.71-.8,3.49-.8s3.17.54,3.17,1.29c0,.28-.17.33-.43.33-.09,0-.34-.02-.57-.03-.23-.01-.46-.03-.54-.03-.37,0-.68,0-1.52.33l-.17.06c-.2.07-.34.12-.44.15.08-.07.17-.15.25-.23ZM30.54,204.44"/>
    </g>
    <path d="M33.6,239.24c-.3,0-.46,0-.46-1.18,0-.23.02-.92.03-1.64.02-.77.04-1.57.04-1.85,0-.65,0-1.31.01-1.96,0-.66.01-1.31.01-1.97,0-.79-.63-.79-.84-.79h-2.26c-.61,0-2.22,0-3.07.07,0,0-.12.01-.23.02-.11.01-.22.03-.27.03-.02,0-.07-.06-.12-.1l-.43-.52c.1,0,.24.02.37.03.23.02.46.04.54.04.64.04,1.9.1,3.33.1h2.12c.19,0,.71,0,.84-.57.02-.15.03-3.51.03-4.95,0-.65-.48-.74-.77-.74h-2.41c-.31,0-.69,0-1.09.75l-.14.25c-1.13,1.97-1.8,3.02-1.99,3.1.08-.07.33-.65.48-1.01.1-.25.2-.47.23-.57l.04-.11c1.02-2.73,1.57-4.83,1.58-6.08,0-.27.02-.36.04-.38.27.13,1.84.92,1.87,1.18-.02.03-.13.09-.33.18-.44.22-1,1.67-1,1.86,0,.29.24.46.65.46h2.05c.54,0,.82-.28.82-.84,0-.73-.02-1.29-.04-1.67,0-.18-.01-.32-.01-.4,0-.16-.02-.65-.05-1.14-.02-.53-.05-1.07-.05-1.27,0-.06,0-.12,0-.14.29.1,2.02.59,2.1.85-.02.03-.16.22-.25.33-.15.19-.24.31-.27.39-.08.31-.13.51-.13,2.98,0,.32,0,.91.82.91h1.01c1.12,0,1.33,0,1.66-.47.64-.83.69-.86.82-.86.27.03,1.73,1.26,1.79,1.51,0,.18-.41.19-1.14.19h-4.14c-.57,0-.82.24-.82.82.01.31.02,1.36.02,4.63,0,.82.62.82.89.82h1.93c1.13,0,1.3,0,1.65-.47.62-.83.67-.88.83-.88.27.04,1.73,1.29,1.79,1.53,0,.16-.56.16-1.16.16h-5.04c-.86,0-.86.55-.86.98,0,.49.02,1.92.03,3.38.02,1.55.04,3.14.04,3.72,0,.46,0,1.3-1.09,1.3ZM23.65,239.19c-.23,0-.41,0-.41-.73,0-.05.02-.38.03-.73.02-.42.04-.89.04-.98.17-3.43.26-9.21.26-9.97,0-.48,0-1.38-.07-1.9-.08-.5-.28-.77-.55-.77-.15,0-.39.22-1.27,1.1-.61.61-1.74,1.74-1.99,1.75.04-.01.52-.67,1.02-1.36.89-1.23,2-2.76,2.29-3.22.5-.75,1.84-3.09,2.04-4.76.02-.19.09-.19.12-.19.15,0,.79.39,1.06.55.14.08.25.15.3.18l.1.05c.37.18.69.34.69.52-.03.06-.3.26-.41.33-.07.05-.13.1-.15.12-.41.41-.93,1.07-2.28,2.83-.3.41-.44.6-.44.78,0,.36.26.51.52.61.25.11.61.27.61.35,0,.01-.04.11-.27.45-.14.24-.14.43-.14.66v11.64c0,.1,0,.33.01.59.01.51.03,1.2.01,1.37-.06.59-.65.71-1.14.71Z"/>
  </g>
  <g>
    <path class="cls-1" d="M25.3,272.64h7.73c1.27,0,2.32-.07,3.13-.22.82-.15,1.52-.42,2.1-.8.58-.38,1.15-.95,1.72-1.68h1.44l-3.09,7.63h-18.38v-1.01c1.98-2.23,3.82-4.31,5.51-6.24,1.7-1.93,3.19-3.78,4.48-5.55,1.29-1.77,2.33-3.58,3.13-5.43.8-1.85,1.2-3.68,1.2-5.47,0-1.34-.26-2.53-.78-3.58-.52-1.05-1.23-1.87-2.12-2.46s-1.89-.88-2.99-.88c-1.4,0-2.64.45-3.72,1.34-1.08.9-1.87,2.2-2.36,3.91h-1.44c1.44-5.67,4.82-8.51,10.13-8.51,1.73,0,3.27.36,4.64,1.07,1.37.71,2.42,1.68,3.17,2.89.75,1.21,1.12,2.51,1.12,3.91,0,1.98-.55,3.96-1.64,5.95-1.09,1.99-2.51,3.96-4.25,5.93-1.74,1.96-4.66,5.03-8.74,9.21Z"/>
    <path class="cls-3" d="M22.4,275.82l-.75.92h11.62c1.66,0,2.84-.21,3.52-.64.68-.42,1.26-1.21,1.73-2.36-.72.49-1.41.84-2.06,1.07-.65.23-1.68.34-3.1.34h-8.88c-.71,0-1.15.04-1.34.11-.19.07-.43.26-.73.55Z"/>
    <path class="cls-3" d="M30.72,265.13c1.23-1.21,2.29-2.47,3.18-3.79.9-1.32,1.58-2.65,2.05-3.98.47-1.34.71-2.62.71-3.86,0-1.44-.29-2.8-.86-4.05-.57-1.26-1.37-2.25-2.39-2.97-1.02-.72-2.18-1.08-3.46-1.08-1.05,0-2.11.29-3.18.87.33-.09.78-.14,1.34-.14,1.05,0,2.02.2,2.9.61.88.41,1.62.97,2.21,1.67.6.71,1.05,1.52,1.37,2.45.31.93.47,1.88.47,2.87,0,1.92-.37,3.77-1.11,5.55-.74,1.78-1.81,3.73-3.23,5.85Z"/>
  </g>
  <g>
    <g>
      <path d="M27.53,49.67c-.08,0-.17-.07-.24-.19-.28-.48-.36-.59-1.04-1.17-.04-.04-.2-.15-.36-.26-.03-.02-.06-.04-.1-.07.01,0,.02,0,.03,0,.42.06.6.08.84.08h.44c.71,0,1.51,0,1.73-.96.19-.78.53-3.96.53-4.71,0-.46-.26-.7-.77-.7h-4.75c-.32,0-.67.03-.83.42-.28.61-.42.88-.86.88-.49,0-.53-.36-.53-.87,0-.19.05-1.13.07-1.33,0-.22,0-.57.01-1.03.01-.84.03-2.02.03-3.27,0-2.74-.07-4.16-.14-5.38,0-.1-.03-.41-.06-.73-.03-.35-.06-.71-.06-.85l.1-.08c.3,0,.61.17.94.37.64.36.96.36,1.33.36h3.08c.8,0,1.04,0,1.42-.6.47-.77.58-.83.68-.83.28,0,1.76,1.16,1.76,1.57,0,.2-.32.22-1.16.22h-2.22c-.98,0-.98.33-.98,1.9,0,.91,0,1.42.7,1.42.28,0,.49-.04.77-.56.11-.18.3-.48.43-.48.25,0,1.42.93,1.42,1.21,0,.19-.41.2-1.14.2h-1.25c-.94,0-.94.31-.94,1.8,0,1.04,0,1.39.72,1.39.36,0,.61-.07.84-.45.38-.59.4-.61.51-.61.23,0,1.23.94,1.23,1.23,0,.19-.42.2-1.16.2h-1.33c-.25,0-.72,0-.79.53-.02.17-.01.92,0,1.74v.49c0,.66.34.79.89.79h1.45c.29,0,.59-.02.81-.27.14-.16.25-.24.3-.24.76.29,1.47.7,1.47.87,0,.16-.1.24-.32.39-.38.25-.49.41-.52.73-.15,2-.3,3.98-.93,5.4-.33.74-1.33,1.43-2.06,1.43ZM23.82,37.8c-.89,0-.89.29-.89,1.66,0,1.57,0,1.9.89,1.9h.58c.89,0,.89-.32.89-1.68,0-1.55,0-1.88-.89-1.88h-.58ZM23.63,34.23c-.74,0-.74.33-.74,1.42,0,1.51,0,1.78.74,1.78h.92c.77,0,.77-.35.77-1.39,0-1.49,0-1.8-.77-1.8h-.92ZM23.66,30.54c-.2,0-.61,0-.74.39-.02.05-.06.17-.06,2.04,0,.47,0,.91.77.91h.89c.77,0,.77-.39.77-1.1,0-1.87-.1-1.97-.16-2.03-.18-.21-.41-.21-.61-.21h-.87ZM36.11,49.48c-.49,0-.53-.52-.56-1.38-.04-1.2-.56-3.05-1.15-3.05-.23,0-.36.23-.41.31-.67,1.25-1.53,2.25-2.54,2.99-.22.16-.54.36-.79.51l.06-.06c.49-.49,2.13-2.28,2.9-5.02.46-1.66.97-4.73.97-6.35,0-.51-.27-.77-.79-.77-.22,0-.95.04-1.55.08-.4.02-.74.04-.81.04l-.12-.13-.43-.53c.28.01.79.04,1.31.08.68.04,1.37.09,1.62.09.21,0,.59,0,.77-.34.04-.07.14-.27.14-3.47,0-1.89-.05-2.29-.2-2.95-.06-.22-.17-.61-.17-.69,0-.1.02-.2.24-.2.18,0,1.57.39,1.83.5.1.03.32.12.32.28,0,.08-.17.21-.35.34-.36.28-.47.45-.47,1.03,0,.33-.03,1.28-.06,2.25-.03,1.03-.06,2.09-.06,2.47,0,.35.15.77.86.77h1.4c1.09,0,1.28,0,1.61-.5.45-.69.47-.71.58-.71.23,0,1.33,1.04,1.33,1.35,0,.2-.29.22-1.14.22h-3.73c-.26,0-.86,0-.86.77,0,.87,1.97,7.34,5.28,10.01l.15.11c.16.12.54.4.79.59-.02,0-.04,0-.06-.01-.15-.03-.3-.05-.35-.05-.62,0-1.44.37-1.59.52-.09.09-.17.17-.19.17h0c-.61,0-2.67-3.79-3.86-9.76,0-.26-.15-.31-.24-.31-.17,0-.21.18-.23.25,0,.04-.19,1.92-.65,3.76-.02.1-.09.31-.16.57-.23.8-.33,1.15-.33,1.25,0,.28.1.36.74.87l.08.06c.66.51,1.75,1.54,1.75,2.71,0,.59-.41,1.3-.89,1.3ZM20.04,48.32c-.47,0-.8-.41-.8-.77,0-.29.07-.4.5-.98.58-.81.94-1.9.94-2.86,0-.02,0-.05,0-.06.25.25.8,1.06.8,2.28,0,.02-.02,2.39-1.45,2.39ZM23.1,47.67c-.31,0-.44-.33-.44-.51,0-.09.03-.25.06-.37.02-.11.04-.17.04-.21.1-.38.17-.93.17-1.45,0-.12-.04-.47-.07-.78-.01-.14-.03-.27-.04-.36.19.17.53.52.67.73,0,.01.53.81.53,1.61s-.54,1.33-.92,1.33ZM25.51,46.47q-.37,0-.43-.98c-.04-.47-.19-1.13-.27-1.49-.03-.11-.04-.19-.05-.23-.01-.05-.06-.15-.11-.26-.02-.04-.04-.08-.06-.13.2.12.52.33.69.52.54.56.81,1.15.81,1.76,0,.45-.26.82-.58.82ZM27.66,45.29c-.28,0-.31-.03-.48-1.25-.06-.41-.21-.87-.33-1.15,0,0,0,0,0,0,.13.07.33.19.5.34.79.64.82,1.29.82,1.36,0,.24-.15.7-.51.7Z"/>
      <path d="M36.28,72.69c-.33,0-.36-.14-.36-.73s-.27-.89-.86-.89h-8.5c-.8,0-.87.49-.94.96-.08.47-1.1.63-1.38.63-.38,0-.41-.18-.41-.48,0-.41.07-2.04.11-3.05l.03-.7c.05-2.73.05-4.9.05-12.1,0-1.19,0-1.91-.05-2.9,0-.09-.03-.27-.06-.48-.06-.41-.13-.96-.13-1.13,0-.06.01-.1.02-.11.16,0,.53.22,1.22.61l.36.2c.63.38,1.25.38,1.71.38h7.4c.85,0,1.09-.13,1.44-.56l.27-.31c.27-.31.32-.36.36-.36.22.05,1.83,1.23,1.88,1.5,0,.07-.02.15-.32.42-.51.51-.53.61-.53,3.55,0,.09.05,10.39.07,11.04,0,.22.02.86.05,1.51.02.68.05,1.38.05,1.64,0,.66,0,.76-.34.96-.61.39-1.13.39-1.13.39ZM26.55,64.91c-.77,0-.91.35-.91,1.01,0,2.73,0,4.16.03,4.26.14.55.64.55.89.55h8.53c.91,0,.91-.5.91-1.08,0-.21,0-.66.01-1.2.01-1.1.03-2.48.01-2.81-.06-.65-.5-.74-.91-.74h-8.55ZM26.55,58.83c-.84,0-.91.42-.91.94,0,4.06.02,4.16.03,4.2.06.6.62.6.89.6h8.58c.44,0,.91-.06.91-.84,0-.32.01-1.2.03-2.05.01-.8.02-1.58.02-1.85,0-.48,0-.98-.91-.98h-8.63ZM26.52,53.27c-.62,0-.89.24-.89.82v3.47c0,.37,0,.94.89.94h8.63c.19,0,.75,0,.86-.57.02-.09.03-1.34.03-3.71,0-.4,0-.94-.89-.94h-8.63Z"/>
      <path d="M20.38,95.31s.1-.07.22-.14c1.17-.78,4.05-2.96,5.76-6.25,2.68-5.11,2.76-11.71,2.76-12.45s0-.98-.1-1.5c-.03-.09-.09-.4-.09-.46.02,0,.04,0,.07,0,.19,0,.58.12.82.19.23.07.44.13.52.15,1.15.31,1.53.44,1.53.75,0,.14-.07.2-.3.25-.19.02-.36.05-.47.2-.07.11-.1.21-.1.37,0,.07.33,5.89,3.51,11.11.98,1.56,3.58,5.22,6.93,6.09.03.01.11.04.14.06,0,0-.02,0-.05,0-.08,0-.24.04-.45.08l-.24.05c-.84.19-1.43.55-1.71.75l-.28.21c-.13.1-.22.17-.25.18-.31-.14-3.18-2.17-5.35-6.93-.51-1.14-1.97-4.37-2.3-9.27-.02-.27-.04-.42-.26-.42-.26,0-.28.14-.36.92l-.02.17c-.06.63-.65,6.27-3.06,10.25-2.41,4.01-6.32,5.55-6.86,5.66Z"/>
      <path d="M38.11,117.99c-.18,0-.32-.18-.55-.58-.15-.24-.31-.52-.73-.75-.05-.03-.18-.08-.34-.13-.17-.06-.51-.18-.68-.27.22-.04.65-.07.9-.07,1.54-.07,1.93-.18,2.02-.99.03-.27.07-6.46.07-9.75,0-.89-.48-.89-1.08-.89h-3.13c-.61,0-.75.16-.84.62-.06.45-.6.66-.97.66-.14,0-.35,0-.44-.35-.01-.13-.02-2.72-.02-5.22,0-.18-.03-.69-.06-1.22-.03-.55-.06-1.13-.06-1.34,0-.07.03-.27.12-.27.27,0,.7.2,1.05.36.33.16.42.17.71.17h4.12c.28,0,.38-.01.61-.23.29-.31.35-.34.43-.34.22.03,1.42.75,1.42,1.09,0,.09-.1.18-.21.28-.44.38-.44.52-.44,1.39,0,1.08.01,4.21.02,7.44.01,3.41.03,6.92.03,8.2,0,.96-.13,1.46-.89,1.85-.48.24-.99.37-1.07.37ZM34.5,101.32c-.47,0-.84,0-.84.62v1.59c0,.67.33.67.84.67h3.49c.46,0,.82,0,.82-.65v-1.59c0-.65-.34-.65-.82-.65h-3.49ZM34.45,98.31c-.4,0-.82,0-.82.7,0,1.13.01,1.41.03,1.48.06.47.45.47.79.47h3.54c.42,0,.82,0,.82-.67v-1.47c-.1-.5-.43-.5-.82-.5h-3.54ZM21.78,117.99c-.33,0-.48-.23-.48-.7v-.2c.01-.22.02-.55.02-.76.24-7.15.24-8.75.24-11.4,0-1.52,0-5.09-.02-5.41-.02-.2-.14-2.19-.14-2.21,0-.03,0-.1.01-.13.21.03.76.32.94.41.69.37.79.41,1.17.41h3.57c.27,0,.47,0,.77-.31.22-.24.39-.42.55-.42.23.01,1.33.85,1.33,1.09-.02.05-.21.26-.3.35-.06.06-.11.12-.13.15-.2.25-.2.48-.2,1.15,0,.31.03,1.19.06,2.09.03.95.06,1.93.06,2.29,0,1.36-.72,1.42-.87,1.42-.44,0-.51-.3-.56-.72-.09-.63-.48-.63-.94-.63h-2.99c-.41,0-.87,0-1.02.4-.06.13-.08.65-.08,1.76,0,3.44,0,5.49.02,6.1.03.56.1,3.1.1,3.66,0,.68-.12,1.59-1.11,1.59ZM23.63,101.41c-.46,0-.86,0-.86.62v1.4c0,.67.34.67.86.67h3.4c.46,0,.86,0,.86-.62v-1.37c0-.66-.33-.7-.86-.7h-3.4ZM23.63,98.38c-.6,0-.84.03-.84.74v1.3c0,.65.37.65.84.65h3.45c.6,0,.84-.03.84-.77v-1.3c0-.62-.37-.62-.84-.62h-3.45ZM27.2,116.02c-.18,0-.41,0-.41-.73,0-.17.02-.81.05-1.02.07-1.27.1-2,.1-3,0-.25,0-2.46-.07-3.31,0-.04-.02-.18-.03-.34-.02-.16-.04-.33-.04-.39l.08-.08c.1,0,.51.16.81.27.5.19.81.31.98.31h3.76c.34,0,.48-.06.66-.27.32-.36.48-.43.57-.43.21.01,1.28.76,1.28,1.09,0,.07-.04.13-.09.19l-.07.1c-.21.27-.3.38-.32.74-.06.48-.03,2.8,0,4.18,0,.4,0,.71,0,.84,0,.63,0,.91-.19,1.14-.28.33-.7.48-.9.48-.33,0-.39-.23-.39-.73,0-.72-.48-.72-.94-.72h-2.99c-.62,0-.81.15-.86.68-.09.65-.43,1.01-.97,1.01ZM28.96,111.05c-.46,0-.82,0-.82.65v1.66c0,.6.4.6.82.6h3.3c.57,0,.82-.03.82-.77,0-1.03,0-1.6-.03-1.69-.1-.45-.3-.45-.79-.45h-3.3ZM28.91,108.09c-.7,0-.77.16-.77.91v1.2c.1.48.41.48.77.48h3.4c.36,0,.67,0,.77-.45v-1.4c0-.71-.26-.74-.77-.74h-3.4Z"/>
    </g>
    <path d="M26.24,133.54c-1.07,0-2-3.2-2-5.13,0-1.24.16-1.82.82-4.24.35-1.27.35-1.77.35-2.14,0-.62-.11-1.17-.21-1.45-.05-.14-.11-.28-.11-.32.84.05,1.62,1.78,1.62,2.43,0,.19,0,.2-.36.84-.24.46-1.55,3.37-1.55,5.19,0,.66.23,1.33.66,1.33.46,0,.66-.45,1.09-1.64.03-.09.07-.19.1-.27-.01.14-.09.56-.16.97-.14.8-.29,1.71-.29,2.01s.16.7.3,1.03c.17.34.25.65.25.88,0,.33-.27.53-.51.53ZM33.62,132.75c-1.86,0-2.58-.46-3-.85-.36-.36-.57-.69-.57-.89,0,0,0-.01,0-.01.03,0,.15.08.21.12.07.05.13.08.16.1.6.31,1.44.35,2.19.35.52,0,1.24,0,1.74-.06.13,0,.51-.05.89-.08.4-.04.79-.07.84-.08.73,0,.77.44.77.53,0,.59-.32.87-3.23.87ZM33.62,123.05c-2.18,0-3.29-1.14-3.33-1.33.03.05.1.07.19.1.1.03.21.06.33.09.47.1,1.01.12,1.38.12,1.03,0,1.96-.21,2.23-.31.47-.17.59-.22.71-.22.37.05.79.33.79.72,0,.61-1.24.83-2.3.83Z"/>
  </g>
  <g>
    <path class="cls-1" d="M71.81,28.06c-1.43,0-2.88-.69-2.88-2.23,0-1.28,1.11-2.14,1.31-2.17l-.12.12c-.09.12-.3.4-.3.9,0,1.02.77,1.6,2.1,1.6,2.23,0,4.63-1.47,4.63-3.86,0-2.12-1.57-3.44-3.02-3.44-.74,0-2.54.29-6.23,2.25-1.72.92-1.93,1.04-1.93,1.64,0,.17.02.61.05,1.03.02.4.04.78.04.93,0,1.27-.43,3.15-1.34,3.15-.66,0-.95-.47-1.21-1-.96-1.85-1.14-1.94-1.64-1.94-.26,0-.52.09-.71.16-.16.07-.27.13-.39.2-.2.12-.66.4-.77.41-.23,0-1.66-.81-1.66-1.7,0-.47.28-.98.69-.98.09,0,.33.04.58.07.27.04.54.08.63.08.82,0,1.36-.14,3.16-1.03,1.52-.74,1.79-.88,1.79-1.82,0-.7-.03-3.22-.06-3.72,0-.32-.16-.82-.59-.82-.39,0-1.26.22-1.42.28l-.25.08c-1.28.43-1.41.47-1.8.47-.86,0-1.92-1.87-1.96-2.09.02,0,.05,0,.07,0,.08,0,.15.02.22.04.16.04.25.07.31.07.44.08.93.15,1.36.15,1.05,0,3.65-.7,3.89-.94.23-.32.35-3.33.35-3.36,0-.95-.16-1.6-1.03-2.5-.26-.26-.36-.38-.38-.41.01-.01.27-.09.49-.09,1.89,0,2.88,1.37,2.88,1.84,0,.13-.26.7-.4,1-.1.23-.19.42-.21.49-.01.07-.03.18-.06.33-.09.46-.24,1.23-.24,1.65,0,.24.14.5.41.5.24,0,1.21-.35,1.21-.92,0-.06-.02-.12-.09-.27-.03-.06-.06-.13-.06-.16.49.07,1.61.46,1.61,1.18,0,.82-2.08,1.68-2.76,1.96-.62.23-.65.45-.71,1.5-.06.62-.06,2.79-.06,3.22,0,.18,0,.71.44.71.07,0,.16-.03,1.88-.72.52-.21,1-.41,1.18-.47,2.79-1.04,4.13-1.18,4.98-1.18,2.11,0,4.4,1.65,4.4,4.31,0,3.9-4.16,5.53-6.39,5.53ZM64.24,23.05c-.13,0-2.16.96-2.16,1.54,0,.53.86,1.57,1.42,1.57.59,0,1-1.01,1-2.46,0-.31-.03-.53-.17-.62l-.04-.03h-.05ZM78.99,16.54c.07-.16.12-.32.12-.53,0-1.22-1.38-1.78-2.67-1.78-.5,0-.8.13-1.21.3-.13.06-.19.08-.25.08.12-.16,1.29-1.64,3.09-1.64,2.3,0,3.51,1.2,3.51,2.38,0,.51-.29,1.25-.8,1.25-.09,0-.32-.02-.53-.03-.21-.01-.4-.03-.48-.03-.09.01-.2.04-.32.08-.17.05-.5.13-.57.13l.11-.21Z"/>
    <path class="cls-1" d="M57.44,56.36c-.48,0-.66-.29-.66-.54,0-.1.11-1.49.15-1.82.15-2.74.15-6.09.15-10.73,0-6.08,0-10.1-.12-11.36-.05-.34-.15-1.11-.15-1.26.29.03,1,.32,1.32.48.54.29.87.29,1.29.29h1.9c.44,0,.87-.04,1.26-.54,0,0,.04-.05.09-.11.06-.07.19-.25.24-.28.17.08,1.74,1.06,1.85,1.3,0,.04-.36.24-.65.4-.12.09-.41.52-1.36,1.96-.59.9-1.2,1.82-1.43,2.12-.04.06-.14.19-.26.34-.75.99-.79,1.07-.79,1.16,0,.18.24.48.71.9,2.23,2.05,2.7,3.8,2.7,4.92,0,3.04-2.1,5.35-3.15,5.35-.12-.08-.45-.88-.58-1.18-.06-.16-.12-.28-.15-.35-.09-.18-.43-.69-.81-.69-.11,0-.38.05-.38.53,0,.59.02,2.22.05,3.81.02,1.5.04,2.96.04,3.46,0,.9,0,1.06-.34,1.42-.25.25-.63.42-.94.42ZM59.64,31.87c-.52,0-1.01.09-1.12.77-.03.17-.03,5.91-.03,8.37,0,3.21.06,4.78.19,5.11.22.55,1.52.61,2.06.61.32,0,.72-.05.95-.44.51-.77.71-2.36.71-3.18,0-1.54-.47-2.85-1.58-4.35l-.23-.32c-.3-.42-.33-.46-.33-.64.01-.03.16-.38.37-.87.82-1.98,1.62-3.96,1.62-4.38,0-.68-.58-.68-.86-.68h-1.75ZM76.91,56.24c-.48,0-.48-.26-.48-.48,0-.18.03-.66.06-1.13.03-.46.06-.91.06-1.07,0-1.8-.02-1.9-.03-1.94-.15-.61-.65-.61-.97-.61h-1.42c-.67,0-2.71,0-3.75.06h0s-.18.02-.33.05c-.12.02-.24.04-.28.04-.02,0-.05-.04-.11-.12l-.56-.68c.3.01.8.04,1.29.07.58.04,1.13.07,1.32.07.95,0,.95-.5.95-1.48,0-2.8-.03-3.13-.21-3.93-.01-.05-.05-.16-.09-.27-.02-.05-.04-.11-.06-.16.28.09.82.3,1.11.42.22.09.4.16.48.19.33.09.65.13,1.09.13h.56c.98,0,.98-.6.98-1.24,0-1.56-.03-1.8-.09-2.14-.08-.17-.14-.31-.15-.34.05.11.83.31,1.34.44.37.09.69.17.79.2.18.06.19.09.19.16-.02.02-.2.19-.28.27-.11.1-.16.15-.19.2-.18.32-.18.47-.18,1.43,0,.34,0,1.03.8,1.03.26,0,.52-.02.7-.24.05-.03.15-.16.31-.37.16-.19.48-.6.58-.64.2.1,1.68,1.34,1.73,1.62-.04.06-.27.06-.51.06h-2.64c-.98,0-.98.72-.98,1.24,0,2.72.03,2.84.03,2.88.13.61.7.61.97.61.63,0,.76-.12,1.29-.71l.27-.3c.15-.17.25-.29.29-.3.22.09,1.81,1.24,1.85,1.53,0,.15-.16.21-.57.21-.09,0-1,.03-1.07.03h-2.05c-.95,0-.95.65-.95,1.01,0,.32.1,1.43.18,2.31.05.49.08.89.08.95,0,.62-1.12.95-1.34.95ZM74.86,45.82c-.83,0-.83.38-.83,2.19s.05,1.95.07,2.01c.15.54.55.54,1.41.54,1.03,0,1.03-.37,1.03-2.16s-.05-1.95-.07-2.01c-.15-.56-.52-.56-1.62-.56ZM62.2,54.98c.56-.38,1.32-.92,1.79-1.31,1.62-1.31,2.94-3.15,2.94-3.4,0-.21-.25-.29-.41-.29-.27-.03-.42-.04-.51-.4-.26-1.12-.49-2.09-1.18-2.09-.23,0-.58.29-1.33.99-.21.2-.4.37-.49.44-.38.29-.78.55-1.1.72,2-2.05,3.6-4.57,4.74-7.49.06-.13.14-.33.18-.37.18.04,1.9.53,2.05.76,0,.03,0,.04-.41.2l-.17.08s-.88,1.01-.88,1.43c0,.14.05.45.55.45.06,0,.11,0,.17-.01h.78c.27,0,.38,0,.68-.1.07-.04.13-.09.2-.14.1-.08.33-.27.4-.3,1.15.45,1.52.75,1.55.85,0,.09-.03.21-.29.34-.31.14-.42.21-.67.67-1.59,3.09-3.32,5.4-5.3,7.07-.88.75-2.41,1.62-3.29,1.91ZM67.59,45.14c-.59,0-.91,0-1.52.68-.07.09-.2.24-.34.41-.64.76-.71.87-.71.98,0,.23.31.4.99.7.11.05.19.08.22.1.47.27.62.51.83.86.18.37.22.47.36.47.41,0,1.99-3.23,1.99-3.59,0-.62-.58-.62-.8-.62h-1.01ZM71.6,42.79c-.33,0-.45-.03-.45-.36,0-.12.05-.45.09-.78.04-.32.09-.63.09-.74.06-.82.09-1.54.09-2.2,0-.13-.03-1.62-.03-1.75,0-.46-.22-.53-.35-.53-.21,0-.78.77-.78.78-1.57,1.84-2.79,2.96-5.41,4.23,0,0-.01,0-.02,0,2.89-2.48,4.45-5.06,4.45-5.58s-.46-.53-.65-.53c-1.17,0-2.62,0-3.81.09h0c-.06,0-.34.02-.57.04-.15.01-.28.02-.31.02-.02,0-.09-.07-.14-.13l-.53-.64c.13,0,.3.02.47.03.29.02.58.05.68.05,1.23.06,2.64.12,4.07.12h1.9c1,0,1-.74,1-1.27,0-1.82,0-2.74-.03-3.07,0-.07-.03-.3-.07-.53-.03-.18-.05-.35-.05-.41,0,0,.02,0,.03,0,.27,0,1.55.27,2.12.44.16.05.32.15.32.25,0,.09-.02.14-.41.35-.24.17-.33.33-.33.54-.09.61-.09,1.7-.09,2.35,0,.76,0,1.36,1.15,1.36h3.09c.82,0,.89,0,1.09-.07.22-.08.54-.47,1.04-1.1.21-.26.47-.58.54-.63.18.11,1.99,1.64,1.99,2.01,0,.15-.25.21-.81.21h-6.29c-.16,0-.53,0-.53.38,0,.79,2.43,2.59,5.69,3.82.34.13,2.01.53,2.95.75h-.06c-1.45.47-1.82.9-2.29,1.56-.03.06-.09.13-.12.14-.39-.08-4.63-2.39-6.26-5.81-.27-.61-.34-.75-.69-.75-.47,0-.47.4-.47.53,0,.44.03,1.66.06,2.85.03,1.12.06,2.21.06,2.59,0,.56,0,1.4-1.43,1.4ZM74.57,34c.07-.1.19-.28.41-.56.92-1.47,1.44-2.65,1.54-3.04.02-.05.05-.24.08-.39.55.18,1.99.95,2.03,1.21,0,.26-.46.35-.85.39-.19.02-.55.3-1.44,1.04-.55.46-1.41,1.18-1.78,1.35ZM68.04,33.86c-.41,0-.51-.24-.87-1.23-.37-1.07-.68-1.59-.95-2.05l-.04-.07h0c1.44.68,2.69,1.27,2.69,2.25,0,.31-.15,1.1-.84,1.1Z"/>
    <path class="cls-1" d="M68.26,75.58s-.07,0-.08-.01h0c.07,0,.33-.1.58-.2,2.76-1.09,8.52-3.36,8.52-10.01,0-1.74-.54-7.43-7.43-7.43-.49,0-.72.18-.72.54,0,.06.01.12.03.17l.02.14.07.53c.09.68.19,1.38.19,2.28,0,1.52-.28,3.96-2.67,7.58-2.18,3.32-3.46,3.75-4.33,3.75-1.65,0-3.1-2.67-3.1-5.72,0-2.44.96-4.64,2.86-6.56,3.28-3.35,6.75-3.35,8.23-3.35,2.2,0,3.29.39,4.14.82,2.79,1.37,4.46,4.16,4.46,7.46s-2,7.49-6.48,9.05c-2.26.8-3.96.96-4.29.96ZM68.39,58.01c-2.66,0-7.77,3.59-7.77,8.5,0,1.63.67,4.21,2.45,4.21.88,0,1.57-.45,3.34-3.12,1.63-2.48,2.6-5.37,2.6-7.72,0-1.5-.07-1.88-.62-1.88Z"/>
    <path class="cls-1" d="M60.59,158.58c-.55,0-.6-.31-.6-.63,0-.46.04-1.12.07-1.72.02-.33.04-.65.05-.91.06-.96.27-9.17.27-9.54,0-.24-.12-.41-.29-.41-.09,0-.29.06-.44.29-2.54,3.96-3.48,4.84-3.81,4.88.08-.04.3-.38.54-.74.29-.43.6-.9.68-1.04,2.05-3.47,2.93-7.96,2.93-8.43,0-.53-.33-.8-.97-.8-.18,0-.75.04-1.28.08-.44.03-.84.06-.95.06-.02,0-.05-.04-.11-.12l-.59-.68c.35.01.97.05,1.58.09.72.04,1.42.09,1.67.09,1.15,0,1.15-1.03,1.15-1.42,0-1.41,0-3.15-.03-3.37-.03-.3-.1-.73-.17-1.15-.08-.47-.16-.96-.16-1.17.15,0,1.3.18,2.2.52.17.07.24.12.24.25,0,.09-.18.45-.29.66-.14.29-.22.46-.24.55-.21.8-.3,3.51-.3,4.45,0,.65.36.71.77.71.22,0,.73,0,1.07-.53.44-.67.46-.69.6-.69.26.02,1.56,1.21,1.67,1.47,0,.2-.64.2-1.43.2h-1.63c-1.13,0-1.13.47-1.13,1.87,0,.53.25.67.84,1.01,2.37,1.33,2.69,2.31,2.69,3.17,0,.8-.37,1.31-.95,1.31-.72,0-.83-.51-1.07-2.11-.15-.91-.77-1.9-1.18-1.9-.12,0-.32.07-.32.53,0,.68,0,2.13.01,3.83.02,3.48.04,7.81.02,9.02,0,1.4-.08,2.32-1.1,2.32ZM72.02,158.49c-.08,0-.1-.03-.16-.15-.57-1.2-2.07-1.86-2.44-2.01.15,0,.32.02.48.03.35.02.69.04.81.04,1.84,0,1.9-.32,1.9-2.04,0-1.87,0-6.83-.03-7.55,0-.65-.34-1.03-.95-1.03-1.24,0-3.54.03-4.27.12l-.22.03s-.04,0-.12-.11l-.57-.66c.11,0,.23.02.36.03.24.02.47.05.55.05,1.04.06,2.88.12,4.04.12.53,0,1.18,0,1.18-1.01,0-1.94,0-2.34-1.01-2.34-.87,0-2.54.03-3.34.09h0c-.06,0-.22.02-.37.03-.12.01-.23.03-.27.03,0,0-.03-.02-.1-.11l-.57-.66c.16,0,.36.03.55.04.27.02.51.04.6.04,1.49.08,2.64.12,3.5.12,1.01,0,1.01-.73,1.01-1.21,0-1.62,0-2.16-1.01-2.16h-.74c-.83,0-2.38.03-2.98.06-.12.03-.54.09-.61.09-.02,0-.05-.04-.11-.12l-.56-.68c.34.02.96.09,1.09.11.11,0,.36.01.7.02.8.03,2.13.07,3.13.07h1.96c.83,0,1.16-.16,2.65-3.46.33-.74.58-1.64.69-2.02.03-.1.05-.16.05-.18.03-.14.06-.16.06-.16.31.07,2.35.97,2.46,1.27,0,.1-.1.21-.66.55-.5.3-3.59,3.36-3.59,3.65,0,.24.28.35.56.35,1.81,0,2.08,0,2.46-.58.63-.99.65-.99.86-.99.3.07,2.51,1.47,2.62,1.8,0,.21-.52.22-1.43.22h-4.84c-.97,0-1.21.24-1.21,2.4,0,.65.37.98,1.09.98h.77c1.22,0,1.37,0,1.66-.25.08-.08.21-.26.36-.47.21-.29.64-.89.79-.94.24.11,2.35,1.55,2.45,1.86,0,.21-.48.23-1.4.23h-4.72c-1.09,0-1.09.49-1.09,2.31,0,1.04.76,1.04,1.13,1.04h2.11c1.27,0,1.46,0,1.81-.31.08-.07.21-.24.4-.52.18-.25.52-.73.63-.78.19.11,2.22,1.51,2.33,1.81,0,.21-.52.22-1.43.22h-.95c-.55,0-.59.32-.59.41,0,.17.18.34.68.79.27.24.76.68.78.82,0,.1,0,.11-.68.34-1.21.43-1.45.65-3.33,2.32-.24.21-.36.31-.36.58,0,.82,3.6,3.57,6.48,3.73-.18.1-.39.21-.58.31-.38.2-.75.4-.87.48-.07.05-.2.16-.35.29-.23.2-.72.63-.84.66,0,0-3.01-1.13-5.52-6.99l-.12-.27c-.16-.37-.21-.49-.43-.49-.32,0-.32.33-.32.44,0,.08-.03.86-.03.92,0,.48.07,1.77.14,3.01.06,1.15.13,2.27.13,2.66,0,1.25-.21,1.82-.81,2.2-.61.38-1.23.51-1.42.51ZM75.07,145.79c-.3,0-1.09,0-1.09.92,0,.59,1.36,3.59,2.02,3.59.83,0,2.9-3.54,2.9-3.97,0-.2-.07-.53-.56-.53h-3.27ZM66.56,156.53c-.34-.1-1.58-2.15-1.68-2.4.11.03.23.04.36.04.24,0,.5-.05.79-.11.86-.25,2.17-.72,3.28-1.32.27-.15,1.06-.58,1.47-.79-.28.32-.91.92-1.44,1.42-1.08,1.02-2.2,2.08-2.41,2.56-.07.18-.23.59-.37.61ZM69.31,150.98c-.54,0-.73-.37-1.09-1.15-.26-.59-.97-2.09-2.05-3.34,0,0,0,0,.01,0,.24,0,2.07.94,2.95,1.7.23.18.95.85.95,1.86,0,.28-.08.92-.78.92ZM70.71,136.88c-.38,0-.51-.42-.66-1.05-.29-1.27-.79-2.45-1.48-3.5-.14-.22-.15-.25-.15-.29.32.06,1.65.67,2.75,1.87.54.63.61,1.13.61,1.46,0,1.03-.64,1.52-1.07,1.52Z"/>
    <path class="cls-1" d="M57.02,103.12c.13-.08.27-.15.35-.19,3.32-1.95,6.14-4.57,7.76-7.19,1.92-3.11,2.46-6.89,2.46-7.22,0-.51-.39-.83-1-.83h-3.98c-2.58,0-3.46.06-3.76.09h0c-.05,0-.21.03-.36.05-.11.02-.21.04-.24.04-.02,0-.05-.04-.11-.12l-.59-.68c.34.02.95.08,1.12.11,1.56.06,2.78.09,4.09.09h3.95c.28,0,.75,0,.98-.38.19-.32.2-2.19.2-6.06,0-.83,0-1.48-1.06-1.48h-5.37c-2.57,0-3.46.06-3.76.09-.12.03-.55.06-.63.06,0,0-.03-.02-.1-.11l-.57-.66c.13,0,.3.02.47.03.29.02.58.05.68.05l.43.02c1.25.05,2.39.1,3.64.1h14.99c1.28,0,1.67,0,2.05-.58.99-1.55,1.06-1.64,1.25-1.64.37.07,2.38,2.02,2.38,2.44,0,.21-.68.21-1.4.21h-9.74c-.97,0-1,.61-1.03,1.1l-.04,1.16c-.05,1.59-.14,4.12-.14,4.69,0,.98.54.98.86.98h4.31c1.28,0,1.67,0,2.05-.58l.07-.1c.75-1.15.84-1.27,1.03-1.27.38.03,2.53,1.83,2.62,2.18,0,.2-.65.2-1.4.2h-7.36c-.18,0-1.24.15-1.78.15-.56,0-.65.67-.71,1.07-.44,2.58-1.05,6.07-4.79,9.75-3.05,2.97-6.59,4.17-7.78,4.45Z"/>
    <path class="cls-1" d="M60.17,130.31c-.47,0-.57-.35-.57-.95,0-.85.03-3.35.06-5.9.03-2.68.06-5.43.06-6.42,0-.59,0-.92-.06-2.35,0-.16-.03-1-.53-1-.24,0-.41.18-.82.63l-.11.11c-1.64,1.65-2.56,2.41-2.76,2.44,0-.05.12-.19.17-.25.99-1.33,2.13-3.16,3.13-4.77,2.28-3.75,3.26-7.05,3.29-7.47.05-.5.08-.8.12-.85.43,0,2.79,1.39,2.86,1.76,0,.1-.02.12-.41.34l-.12.07c-.44.22-3.43,4.64-3.32,5.23.05.24.3.42.42.48.5.3.5.31.5.38-.02.05-.2.26-.3.39-.16.19-.24.3-.28.38-.05.1-.22.44-.22,4.61,0,1.22.03,7.63.12,9.63,0,.13.03.51.06.9.03.37.06.74.06.88,0,1.31-.92,1.76-1.34,1.76ZM63.67,130.07s-.07-.02-.08-.03c.07-.02.51-.15.84-.25,5.26-1.52,6.57-4.67,6.57-5.07,0-.23-.22-.47-.71-.98l-.11-.12c-1.79-1.79-2.27-3.83-2.27-4.04,0-.05,0-.12.06-.12.07,0,.16.18.29.46.81,1.85,2.69,3.51,3.04,3.51.68,0,.77-4.14.77-4.18,0-.34,0-1.24-1.12-1.24h-2.91c-.66,0-.76.26-.99.88-.14.38-.55.57-1.26.57-.21,0-.6,0-.6-.69,0-.27.02-1.02.05-1.74.02-.69.04-1.35.04-1.58,0-.31-.02-1.15-.05-1.98-.02-.78-.04-1.53-.04-1.79,0-.21.02-.25.03-.26,0,0,0,0,0,0,.23,0,.83.31,1.09.44.14.07.26.13.32.16.5.25.8.31,1.58.31h2.76c.65,0,1.03-.33,1.03-.89,0-2.64,0-3.11-1.09-3.11h-1.31c-.67,0-2.71,0-3.76.09h0c-.05,0-.21.02-.35.03-.11.01-.21.03-.25.03-.03,0-.05,0-.13-.11l-.57-.66c.34.02.98.09,1.12.11,1.43.06,2.73.09,4.1.09h1.1c.68,0,1.01-.31,1.01-.95,0-.5-.05-1.11-.08-1.48l-.06-.46c-.06-.38-.15-1.02-.15-1.18,0-.22.05-.24.27-.24.54,0,2.5.4,2.5.8-.01.05-.15.23-.23.33-.13.17-.19.26-.21.34-.12.39-.15.79-.15,1.94,0,.89.77.89,1.06.89h2.28c1.36,0,1.57,0,2.03-.57l.08-.1c.75-.88.8-.94,1-.94.31.02,2.03,1.49,2.11,1.8,0,.23-.63.23-1.43.23h-6.08c-.96,0-1.06.66-1.06.95,0,2.82,0,3.05,1.03,3.05h3c.8,0,1-.11,1.35-.57.28-.37.45-.41.55-.41.39,0,1.84.99,1.9,1.23,0,.08,0,.09-.38.39-.6.47-.6.76-.6,2.63v.7c.02.85.04,2.26,0,2.51-.03.33-.51.92-1.13.92-.52,0-.59-.27-.66-.97-.03-.26-.09-.75-.92-.75h-3.09c-.99,0-1.01.39-1.09,2.01-.06,1.2-.39,2.95-.68,4.19.19.72,4.64,2.74,9.14,2.74.39,0,.7,0,.87.02-.05.04-.11.09-.14.11-.07.05-.13.1-.16.13-.8.83-1.2,1.26-1.49,1.83-.13.28-.24.5-.28.53-.34,0-2.94-.5-6.66-2.68-.08-.05-.21-.14-.38-.25-.79-.55-1.2-.81-1.43-.81-.19,0-.39.2-.84.71-.16.18-.33.37-.47.5-1.11,1.05-2.88,2.34-6.77,2.95-.15.03-.6.09-.74.09ZM74.81,112.77c-.26,0-1.04,0-1.04,1,0,2.99.02,3.09.04,3.13.08.47.4.7,1,.7h3.06c.68,0,1.01-.34,1.01-1.03,0-2.93-.03-3.03-.04-3.07-.05-.47-.38-.72-.97-.72h-3.06ZM68.16,112.77c-1.12,0-1.12.41-1.12,2.4s0,2.43,1.12,2.43h2.82c1.12,0,1.12-.37,1.12-2.4s0-2.43-1.12-2.43h-2.82Z"/>
    <path class="cls-2" d="M82.49,97.85c-.42-.26-1.1-.33-1.85-.5-.3.28-.93.69-1.72.68.68-.16,1.08-.5,1.36-.76-.86-.19-1.82-.42-2.78-.76-1.52.88-2.44.11-2.44.11.84.46,1.7.16,2.27-.17-1.07-.39-2.12-.91-3-1.66-.76-.25-1.07-.7-1.07-.7.22.23.51.36.79.44-.54-.52-1-1.14-1.34-1.88,0,0,.4-.19.75.47,0,0-.09-.65-1.08-.82,0,0,.05-.47.56-.09.51.38.6.74.96.6,0,0-.38-.12-.8-.74-.42-.62-1.09-.58-1.09-.58,0,0-.54-1.15-.75-1.71,1.02,6.69,4.24,8.51,6.71,9.13-.44.08-5.74-.1-6.88-9.65l-.11-2.65-.48-.09.18,2.27s.24,2.51-.25,3.56c-.54,1.16-.39,2,.18,3.06.06-.77.25-1.22.25-1.22-.12.38-.11,1.01-.07,1.54.19.34.37.64.47.86.19.4,1.66,2.47,3.66,4.12-.96-1.72-.77-2.66-.77-2.66.04,1.05.66,2.2,1.15,2.96.9.69,1.89,1.27,2.9,1.58-.42-.43-.85-1-1.08-1.63-.52-1.43-1.1-2.53.03-.24.48.97.96,1.57,1.35,1.94,1.13.27,2.29.18,3.39-.51-1.85-.92-2.08-2.05-2.08-2.05.58,1.12,1.6,1.68,2.25,1.94.58-.4,2.51-.88,4.09-2.63,0,0-1.75-.42-3.68-1.58Z"/>
  </g>
  <g>
    <path d="M67.15,194.45c-1.23,0-3.63-2.02-3.63-5.73,0-.28.07-1.05.14-1.8.07-.75.14-1.45.14-1.71,0-.43-.08-.97-.14-1.19l-.04-.13c-.11-.38-.12-.43-.12-.51.78.06,1.64,1.55,1.64,2.04,0,.09-.02.14-.11.4l-.12.35c-.29.81-.48,1.56-.48,2.61,0,2.08,1.07,3.59,1.79,3.59.43,0,.54-.17,1.13-1.16.17-.27.42-.58.5-.61-.05.08-.09.32-.11.37-.22.93-.26,1.12-.26,1.55,0,.38.07.66.12.83l.03.11c.04.15.12.44.12.5,0,.31-.36.47-.61.47ZM75.74,190.84c-.55,0-.83-.4-.83-1.19,0-1.64,0-2.54-1.09-3.63-.05-.05-.17-.15-.3-.26-.2-.17-.57-.48-.62-.57.05.08,1.16.14,1.98.8,1.06.85,1.71,2.26,1.71,3.68,0,.79-.28,1.17-.85,1.17Z"/>
    <path d="M68.95,205.96c-.28,0-.33-.04-.33-.12.03-.03.25-.06.56-.1l.13-.02c4.9-.7,6.21-4.16,6.21-6.09,0-2.38-1.96-3.45-3.35-3.45-1.9,0-4.71,1.47-6.53,2.72-.99.69-1.26.79-1.74.79-1.12,0-2.16-1.08-2.16-1.56,0-.15.06-.18.16-.18.09,0,.37.07.6.12.31.07.51.12.61.12.49,0,.75-.11,2.79-.94l.58-.23c1.08-.43,3.6-1.43,5.38-1.43,2.76,0,4.92,2.09,4.92,4.76,0,1.29-.46,2.42-1.4,3.37-1.42,1.43-3.76,2.24-6.41,2.24Z"/>
    <path d="M68.89,221.28c.08,0,.25-.08.41-.14,2.1-.83,6.46-2.54,6.46-7.59,0-1.32-.41-5.64-5.64-5.64-.38,0-.56.14-.56.42l.04.24.05.4c.07.51.14,1.04.14,1.73,0,1.15-.21,3-2.02,5.73-1.65,2.51-2.61,2.83-3.27,2.83-1.25,0-2.34-2.02-2.34-4.32,0-1.84.73-3.51,2.16-4.96,2.48-2.54,5.11-2.54,6.23-2.54,1.66,0,2.49.3,3.13.62,2.11,1.04,3.37,3.15,3.37,5.65s-1.52,5.66-4.9,6.85c-1.71.6-2.99.73-3.25.73,0,0-.02,0-.02,0ZM69.01,207.97c-2.07,0-5.89,2.66-5.89,6.45,0,1.24.51,3.2,1.87,3.2.67,0,1.2-.34,2.54-2.36,1.23-1.88,1.97-4.07,1.97-5.85,0-1.08-.04-1.43-.48-1.43Z"/>
    <path d="M62.29,240.24c-.16,0-.37-.06-.37-.55v-.16c.01-.18.02-.46.02-.63.2-5.89.2-7.2.2-9.38,0-1.95,0-4.22-.02-4.45-.02-.15-.11-1.73-.12-1.82.01,0,.03,0,.05,0,.18,0,.56.2.69.27.57.31.66.34.98.34h2.94c.23,0,.4,0,.66-.26.17-.19.32-.34.44-.34.19.02,1.05.68,1.07.87-.02.03-.17.19-.24.26-.05.05-.09.1-.11.13-.17.21-.17.4-.17.96,0,.25.02.98.05,1.72.03.78.05,1.59.05,1.89,0,1.09-.58,1.15-.69,1.15-.31,0-.39-.18-.43-.57-.08-.54-.43-.54-.8-.54h-2.46c-.34,0-.73,0-.87.35-.05.11-.07.52-.07,1.46s0,4.27.02,5.02c.02.46.08,2.54.08,3.01,0,.55-.09,1.29-.89,1.29ZM63.82,226.59c-.38,0-.74,0-.74.54v1.15c0,.58.31.58.74.58h2.8c.38,0,.74,0,.74-.54v-1.13c0-.6-.34-.6-.74-.6h-2.8ZM63.82,224.09c-.48,0-.72.03-.72.64v1.07c0,.56.33.56.72.56h2.84c.5,0,.72-.03.72-.66v-1.07c0-.54-.33-.54-.72-.54h-2.84ZM75.74,240.24c-.14,0-.25-.15-.43-.47-.12-.2-.26-.43-.61-.63-.04-.02-.15-.06-.29-.11-.12-.04-.34-.12-.49-.19.19-.03.49-.05.66-.05,1.28-.06,1.62-.16,1.69-.84.02-.22.06-5.33.06-8.03,0-.76-.42-.76-.92-.76h-2.58c-.53,0-.64.16-.71.53-.05.36-.48.52-.77.52-.11,0-.27,0-.34-.27,0-.11-.02-2.24-.02-4.29,0-.15-.02-.57-.05-1-.03-.46-.05-.93-.05-1.1,0-.08.03-.2.08-.2.22,0,.59.17.85.29.27.14.35.14.6.14h3.39c.23,0,.32,0,.52-.2.23-.25.28-.28.34-.28.17.03,1.15.62,1.15.87,0,.06-.09.14-.17.21-.37.32-.37.43-.37,1.16,0,.89,0,3.47.02,6.12.01,2.81.02,5.7.02,6.75,0,.78-.1,1.19-.72,1.5-.39.19-.8.3-.87.3ZM72.76,226.51c-.38,0-.72,0-.72.54v1.31c0,.58.3.58.72.58h2.88c.37,0,.7,0,.7-.56v-1.31c0-.56-.31-.56-.7-.56h-2.88ZM72.72,224.03c-.33,0-.7,0-.7.6,0,.94,0,1.17.02,1.22.05.4.4.4.67.4h2.92c.34,0,.7,0,.7-.58v-1.21c-.08-.44-.38-.44-.7-.44h-2.92ZM66.75,238.61c-.15,0-.31,0-.31-.57,0-.14.02-.66.04-.84.06-1.05.08-1.65.08-2.48,0-.21,0-2.03-.06-2.73,0-.03-.01-.15-.03-.28-.01-.13-.03-.27-.03-.32.01,0,.03,0,.05,0,.14,0,.43.11.64.19.41.16.67.26.81.26h3.09c.29,0,.41-.05.56-.23.27-.3.4-.35.45-.35.19.02,1.03.62,1.03.87,0,.05-.03.09-.07.14l-.06.08c-.18.23-.25.32-.27.62-.05.4-.02,2.31,0,3.44v.69c0,.51,0,.74-.14.92-.23.26-.57.38-.72.38-.25,0-.29-.18-.29-.57,0-.62-.4-.62-.8-.62h-2.46c-.52,0-.69.13-.74.58-.07.52-.34.81-.77.81ZM68.2,234.53c-.37,0-.7,0-.7.56v1.37c0,.52.35.52.7.52h2.72c.47,0,.7-.03.7-.66,0-1.28-.02-1.37-.02-1.4-.08-.39-.28-.39-.67-.39h-2.72ZM68.16,232.09c-.6,0-.66.15-.66.78v.99c.09.42.36.42.66.42h2.8c.29,0,.57,0,.65-.39v-1.16c0-.61-.23-.64-.65-.64h-2.8Z"/>
    <path d="M65.7,254.52c-1.07,0-2-3.2-2-5.13,0-1.24.16-1.82.82-4.24.35-1.27.35-1.78.35-2.14,0-.62-.11-1.17-.21-1.45-.05-.14-.11-.28-.11-.32.84.05,1.62,1.78,1.62,2.43,0,.19,0,.2-.36.84-.24.46-1.55,3.37-1.55,5.19,0,.66.23,1.33.66,1.33.46,0,.66-.45,1.09-1.64.03-.09.07-.19.1-.27-.01.14-.09.56-.16.97-.14.8-.29,1.71-.29,2.01s.16.7.3,1.03c.17.34.25.65.25.88,0,.33-.27.53-.51.53ZM73.08,253.73c-1.86,0-2.58-.46-3-.85-.36-.36-.57-.69-.57-.89,0,0,0-.01,0-.01.03,0,.15.08.21.12.07.05.13.08.16.1.6.31,1.44.35,2.19.35.52,0,1.24,0,1.74-.06.13,0,.51-.05.89-.08.4-.04.79-.07.84-.08.73,0,.77.44.77.53,0,.59-.32.87-3.23.87ZM73.08,244.03c-2.18,0-3.29-1.14-3.33-1.33.03.05.1.07.19.1.1.03.21.06.33.09.47.1,1.01.12,1.38.12,1.03,0,1.96-.21,2.23-.31.47-.17.59-.22.71-.22.37.05.79.33.79.72,0,.61-1.24.83-2.3.83Z"/>
    <path d="M68.78,270.48c-.6,0-.79-.56-1-1.15l-.04-.12-.05-.13c-.06-.15-.16-.38-.19-.47.04.05.19.1.4.17.23.05.76.15,1.06.15.63,0,1.42-.29,2.02-2.52.19-.68.62-2.37.62-3.49,0-1.63-1.1-1.63-1.51-1.63-.62,0-1.83.29-2.02.53-.09.11-.11.19-.28.77l-.04.13c-.85,2.89-2.74,7.48-4.19,7.48-.43,0-.49-.31-.49-.49,0-.36.11-.49,1.29-1.79.56-.62,1.4-1.55,2.47-4.53.06-.14.29-.8.29-.98s-.11-.3-.28-.3c-.25,0-.83.2-1.44.42-.5.18-1.07.38-1.24.38-.69,0-1.54-1.19-1.54-1.54,0,0,.02,0,.03,0,.07,0,.17.03.3.06.47.11.86.21,1.01.21.56,0,3.31-.57,3.4-.61.42-.3.44-2.25.44-2.47,0-.54-.04-1.16-.53-1.77l-.09-.11c-.12-.15-.21-.25-.22-.27,0,0,.01,0,.03,0,.03,0,.09-.01.15-.01,1.29,0,1.96.73,1.96,1.13,0,0-.05.15-.11.37-.31,1.09-.65,2.28-.65,2.56,0,.19.14.32.36.32.04,0,.25-.02.49-.04.28-.03.6-.06.69-.06.93,0,2.5.31,2.5,2.4,0,1.53-.56,4.93-1.67,6.28-.6.7-1.35,1.16-1.91,1.16ZM76.31,265.32c-.09,0-.47-.2-.7-.31-.26-.13-.49-.25-.61-.28-.03-.01-.12-.03-.28-.05-.04,0-.09-.01-.14-.02.11-.06.26-.15.35-.21.12-.07.22-.13.26-.17.73-.55.86-.65.86-1.26,0-.17-.05-1.68-1.69-2.41-.18-.09-.37-.18-.41-.22,2.52.08,3.34,2.58,3.34,3.45,0,.21-.29,1.48-.99,1.49Z"/>
  </g>
</svg>