<?xml version="1.0" encoding="UTF-8"?>
<svg id="_レイヤー_1" data-name="レイヤー_1" xmlns="http://www.w3.org/2000/svg" xmlns:xlink="http://www.w3.org/1999/xlink" viewBox="0 0 322.56 93.11">
  <defs>
    <style>
      .cls-1 {
        fill: #c1ab04;
      }

      .cls-2 {
        fill: #fff;
      }

      .cls-3 {
        fill: url(#_新規グラデーションスウォッチ_10);
      }

      .cls-4 {
        fill: url(#_新規グラデーションスウォッチ_10-2);
      }
    </style>
    <linearGradient id="_新規グラデーションスウォッチ_10" data-name="新規グラデーションスウォッチ 10" x1="123.74" y1="35.35" x2="106.81" y2="35.35" gradientUnits="userSpaceOnUse">
      <stop offset="0" stop-color="#c1ab04"/>
      <stop offset="1" stop-color="#e7e1bd"/>
    </linearGradient>
    <linearGradient id="_新規グラデーションスウォッチ_10-2" data-name="新規グラデーションスウォッチ 10" x1="293.37" y1="48.71" x2="311.95" y2="48.71" xlink:href="#_新規グラデーションスウォッチ_10"/>
  </defs>
  <g>
    <path class="cls-1" d="M272.64,73.44h7.73c1.27,0,2.32-.07,3.13-.22.82-.15,1.52-.42,2.1-.8.58-.38,1.15-.95,1.72-1.68h1.44l-3.09,7.63h-18.38v-1.01c1.98-2.23,3.82-4.31,5.51-6.24,1.7-1.93,3.19-3.78,4.48-5.55,1.29-1.77,2.33-3.58,3.13-5.43.8-1.85,1.2-3.68,1.2-5.47,0-1.34-.26-2.53-.78-3.58-.52-1.05-1.23-1.87-2.12-2.46s-1.89-.88-2.99-.88c-1.4,0-2.64.45-3.72,1.34-1.08.9-1.87,2.2-2.36,3.91h-1.44c1.44-5.67,4.82-8.51,10.13-8.51,1.73,0,3.27.36,4.64,1.07,1.37.71,2.42,1.68,3.17,2.89.75,1.21,1.12,2.51,1.12,3.91,0,1.98-.55,3.96-1.64,5.95-1.09,1.99-2.51,3.96-4.25,5.93-1.74,1.96-4.66,5.03-8.74,9.21Z"/>
    <path class="cls-2" d="M269.75,76.62l-.75.92h11.62c1.66,0,2.84-.21,3.52-.64.68-.42,1.26-1.21,1.73-2.36-.72.49-1.41.84-2.06,1.07-.65.23-1.68.34-3.1.34h-8.88c-.71,0-1.15.04-1.34.11-.19.07-.43.26-.73.55Z"/>
    <path class="cls-2" d="M278.06,65.92c1.23-1.21,2.29-2.47,3.18-3.79.9-1.32,1.58-2.65,2.05-3.98.47-1.34.71-2.62.71-3.86,0-1.44-.29-2.8-.86-4.05-.57-1.26-1.37-2.25-2.39-2.97-1.02-.72-2.18-1.08-3.46-1.08-1.05,0-2.11.29-3.18.87.33-.09.78-.14,1.34-.14,1.05,0,2.02.2,2.9.61.88.41,1.62.97,2.21,1.67.6.71,1.05,1.52,1.37,2.45.31.93.47,1.88.47,2.87,0,1.92-.37,3.77-1.11,5.55-.74,1.78-1.81,3.73-3.23,5.85Z"/>
  </g>
  <g>
    <g>
      <path d="M67.04,73.9c-.08,0-.17-.07-.24-.19-.28-.48-.36-.58-1.04-1.17-.04-.04-.2-.15-.36-.26-.03-.02-.06-.04-.1-.07.01,0,.02,0,.03,0,.42.06.6.08.84.08h.44c.71,0,1.51,0,1.73-.96.19-.78.53-3.96.53-4.71,0-.46-.26-.7-.77-.7h-4.75c-.32,0-.67.03-.83.42-.28.61-.42.88-.86.88-.49,0-.53-.36-.53-.87,0-.19.05-1.13.07-1.33,0-.22,0-.58.01-1.03.01-.84.03-2.02.03-3.27,0-2.74-.07-4.16-.14-5.38,0-.1-.03-.41-.06-.73-.03-.35-.06-.71-.06-.85l.1-.08c.3,0,.61.17.94.37.64.36.96.36,1.33.36h3.08c.8,0,1.04,0,1.42-.59.47-.77.58-.83.68-.83.28,0,1.76,1.16,1.76,1.57,0,.2-.32.22-1.16.22h-2.22c-.98,0-.98.33-.98,1.9,0,.91,0,1.42.7,1.42.28,0,.49-.04.77-.55.11-.18.3-.48.43-.48.25,0,1.42.93,1.42,1.21,0,.19-.41.2-1.14.2h-1.25c-.94,0-.94.31-.94,1.8,0,1.04,0,1.39.72,1.39.36,0,.61-.07.84-.45.38-.59.4-.61.51-.61.23,0,1.23.94,1.23,1.23,0,.19-.42.2-1.16.2h-1.33c-.25,0-.72,0-.79.53-.02.17-.01.92,0,1.74v.49c0,.66.34.79.89.79h1.45c.29,0,.59-.02.81-.26.14-.16.25-.24.3-.24.75.28,1.47.7,1.47.87,0,.16-.1.24-.32.39-.38.26-.49.41-.52.73v.1c-.15,1.91-.3,3.88-.93,5.3-.33.74-1.33,1.43-2.06,1.43ZM63.33,62.02c-.89,0-.89.29-.89,1.66,0,1.57,0,1.9.89,1.9h.58c.89,0,.89-.32.89-1.68,0-1.55,0-1.88-.89-1.88h-.58ZM63.14,58.45c-.74,0-.74.33-.74,1.42,0,1.51,0,1.78.74,1.78h.92c.77,0,.77-.35.77-1.39,0-1.49,0-1.8-.77-1.8h-.92ZM63.16,54.77c-.2,0-.61,0-.74.39-.02.05-.06.17-.06,2.04,0,.47,0,.91.77.91h.89c.77,0,.77-.39.77-1.11,0-1.87-.1-1.97-.16-2.03-.18-.21-.41-.21-.61-.21h-.87ZM75.62,73.7c-.49,0-.53-.52-.56-1.38-.04-1.2-.56-3.05-1.15-3.05-.22,0-.36.23-.41.31-.67,1.25-1.53,2.25-2.54,3-.22.16-.54.36-.79.51l.05-.05c.49-.49,2.13-2.28,2.9-5.03.46-1.66.97-4.73.97-6.35,0-.51-.27-.77-.79-.77-.22,0-.95.04-1.55.08-.4.02-.74.04-.81.04l-.12-.13-.43-.52c.28.01.79.04,1.31.08.68.04,1.37.09,1.62.09.21,0,.59,0,.77-.34.04-.07.14-.27.14-3.46,0-1.89-.05-2.29-.2-2.95l-.03-.1c-.03-.13-.14-.51-.14-.59,0-.1.02-.2.24-.2.18,0,1.56.39,1.83.5.12.04.32.13.32.28,0,.08-.17.21-.35.34-.36.28-.47.45-.47,1.03,0,.33-.03,1.28-.06,2.25-.03,1.03-.06,2.08-.06,2.47,0,.35.15.77.86.77h1.4c1.09,0,1.28,0,1.61-.5.45-.69.47-.71.58-.71.23,0,1.33,1.04,1.33,1.35,0,.2-.29.22-1.14.22h-3.73c-.26,0-.86,0-.86.77,0,.87,1.97,7.34,5.28,10.01l.14.11c.16.12.54.4.79.59-.02,0-.04,0-.06-.01-.15-.03-.3-.05-.35-.05-.62,0-1.44.37-1.59.52-.09.09-.17.17-.19.17h0c-.61,0-2.67-3.79-3.86-9.76,0-.26-.15-.31-.24-.31-.17,0-.21.18-.23.25,0,.04-.19,1.92-.65,3.76-.02.1-.09.32-.16.57-.23.8-.33,1.15-.33,1.25,0,.28.1.36.75.87.73.57,1.83,1.6,1.83,2.77,0,.59-.41,1.3-.89,1.3ZM59.55,72.55c-.47,0-.8-.41-.8-.77,0-.28.07-.4.5-.97.58-.81.94-1.9.94-2.86,0-.02,0-.05,0-.07.25.25.8,1.06.8,2.28,0,.02-.02,2.39-1.45,2.39ZM62.61,71.9c-.31,0-.44-.33-.44-.51,0-.09.03-.25.06-.37.02-.11.04-.17.04-.21.1-.38.17-.93.17-1.45,0-.12-.04-.47-.07-.78-.01-.14-.03-.27-.04-.36.19.17.53.52.67.73,0,.01.53.81.53,1.61s-.54,1.33-.92,1.33ZM65.02,70.69q-.37,0-.43-.98c-.04-.47-.19-1.13-.27-1.49-.03-.11-.04-.19-.05-.23-.01-.05-.06-.15-.11-.27-.02-.04-.04-.08-.06-.13.2.12.52.33.69.52.54.56.81,1.15.81,1.76,0,.45-.26.82-.58.82ZM67.16,69.51c-.28,0-.31-.04-.48-1.25-.06-.41-.21-.87-.33-1.15h0c.13.07.33.19.5.33.79.64.82,1.29.82,1.36,0,.24-.15.7-.51.7Z"/>
      <path d="M98.05,73.9c-.33,0-.36-.14-.36-.73s-.27-.89-.86-.89h-8.5c-.8,0-.87.49-.94.96-.08.48-1.1.63-1.38.63-.38,0-.41-.18-.41-.49,0-.41.07-2.04.11-3.05l.03-.7c.05-2.73.05-4.9.05-12.1,0-1.19,0-1.91-.05-2.9,0-.09-.03-.26-.06-.47-.06-.41-.13-.97-.13-1.13,0-.06.01-.1.02-.11.15,0,.53.22,1.21.6l.37.21c.63.38,1.25.38,1.71.38h7.4c.85,0,1.09-.13,1.44-.56l.27-.31c.26-.3.32-.36.36-.36.22.05,1.83,1.23,1.88,1.5,0,.07-.02.15-.32.42-.51.51-.53.61-.53,3.55,0,.09.05,10.39.07,11.04,0,.22.02.86.05,1.51.02.68.05,1.38.05,1.64,0,.66,0,.76-.34.96-.49.31-.95.39-1.13.39ZM88.31,66.11c-.77,0-.91.35-.91,1.01,0,2.73,0,4.16.03,4.26.14.55.64.55.89.55h8.53c.91,0,.91-.5.91-1.08,0-.21,0-.67.01-1.2.01-1.11.03-2.48.01-2.81-.06-.65-.5-.74-.91-.74h-8.55ZM88.31,60.04c-.84,0-.91.42-.91.94,0,4.06.02,4.16.03,4.2.06.6.62.6.89.6h8.58c.44,0,.91-.06.91-.84,0-.32.01-1.2.03-2.05.01-.8.02-1.58.02-1.85,0-.48,0-.99-.91-.99h-8.63ZM88.29,54.48c-.62,0-.89.24-.89.82v3.47c0,.37,0,.94.89.94h8.63c.19,0,.75,0,.86-.57.02-.09.03-1.34.03-3.71,0-.4,0-.94-.89-.94h-8.63Z"/>
      <path d="M104.04,73.75s.1-.07.22-.14c1.17-.78,4.05-2.95,5.76-6.25,2.68-5.11,2.76-11.71,2.76-12.45s0-.98-.1-1.5c-.03-.09-.09-.4-.09-.46.02,0,.04,0,.07,0,.19,0,.58.12.83.19.23.07.43.13.52.15,1.15.31,1.53.44,1.53.75,0,.14-.07.2-.3.25-.19.02-.36.06-.47.2-.07.11-.1.21-.1.37,0,.07.33,5.89,3.51,11.11.98,1.56,3.58,5.22,6.93,6.09.04.01.11.04.14.06,0,0-.02,0-.05,0-.08,0-.25.04-.45.08l-.24.05c-.84.19-1.43.55-1.71.75l-.28.21c-.13.1-.22.17-.25.18-.31-.14-3.18-2.17-5.35-6.93-.51-1.14-1.97-4.37-2.3-9.27-.02-.27-.04-.42-.26-.42-.26,0-.28.14-.36.92l-.02.17c-.06.63-.65,6.27-3.06,10.25-2.41,4.02-6.33,5.55-6.86,5.66Z"/>
      <path d="M144.09,74.06c-.18,0-.32-.18-.55-.58-.14-.24-.31-.51-.73-.75-.05-.03-.18-.08-.34-.13-.17-.06-.51-.18-.68-.27.22-.04.65-.07.9-.07,1.54-.07,1.93-.18,2.02-.99.03-.27.07-6.46.07-9.75,0-.89-.48-.89-1.08-.89h-3.13c-.61,0-.75.16-.84.62-.06.46-.6.66-.97.66-.14,0-.35,0-.44-.35-.01-.13-.02-2.72-.02-5.22,0-.18-.03-.69-.06-1.22-.03-.56-.06-1.13-.06-1.34,0-.07.03-.27.12-.27.27,0,.7.2,1.04.36.35.17.44.17.72.17h4.12c.28,0,.38-.01.61-.23.29-.31.35-.34.43-.34.22.03,1.42.75,1.42,1.09,0,.09-.1.18-.21.28-.44.38-.44.52-.44,1.39,0,1.08.01,4.21.02,7.44.01,3.41.03,6.92.03,8.2,0,.96-.13,1.46-.89,1.85-.48.24-.99.37-1.07.37ZM140.47,57.39c-.47,0-.84,0-.84.62v1.59c0,.67.33.67.84.67h3.49c.46,0,.82,0,.82-.65v-1.59c0-.65-.34-.65-.82-.65h-3.49ZM140.42,54.38c-.4,0-.82,0-.82.7,0,1.13.01,1.41.03,1.48.06.47.45.47.79.47h3.54c.42,0,.82,0,.82-.67v-1.47c-.1-.5-.43-.5-.82-.5h-3.54ZM127.75,74.06c-.33,0-.48-.23-.48-.7v-.2c.01-.22.02-.55.02-.76.24-7.15.24-8.75.24-11.4,0-1.52,0-5.09-.02-5.41-.02-.18-.14-2.11-.14-2.21,0-.03,0-.1.01-.13.21.03.76.32.94.41.69.37.79.41,1.17.41h3.57c.27,0,.47,0,.77-.31.22-.24.39-.42.55-.42.23.01,1.33.85,1.33,1.09-.02.05-.21.26-.3.34-.06.06-.11.12-.13.15-.2.25-.2.48-.2,1.15,0,.3.03,1.19.06,2.09.03.95.06,1.93.06,2.29,0,1.36-.73,1.42-.87,1.42-.43,0-.51-.3-.56-.72-.09-.63-.48-.63-.94-.63h-2.99c-.41,0-.87,0-1.02.4-.06.13-.08.65-.08,1.76,0,3.44,0,5.49.02,6.1.03.55.1,3.08.1,3.66,0,.68-.12,1.59-1.11,1.59ZM129.61,57.49c-.46,0-.86,0-.86.62v1.4c0,.67.34.67.86.67h3.4c.46,0,.86,0,.86-.62v-1.37c0-.66-.33-.7-.86-.7h-3.4ZM129.61,54.45c-.6,0-.84.03-.84.74v1.3c0,.65.37.65.84.65h3.45c.6,0,.84-.03.84-.77v-1.3c0-.62-.37-.62-.84-.62h-3.45ZM133.17,72.09c-.18,0-.41,0-.41-.73,0-.17.02-.81.05-1.02.07-1.27.1-2,.1-3,0-.25,0-2.46-.07-3.31,0-.04-.02-.19-.03-.34-.02-.16-.04-.33-.04-.39l.08-.08c.1,0,.51.16.81.27.5.19.81.31.98.31h3.76c.34,0,.48-.06.66-.27.32-.36.48-.43.57-.43.21.01,1.28.76,1.28,1.09,0,.07-.04.13-.08.18l-.07.1c-.21.27-.3.38-.32.74-.06.48-.03,2.8,0,4.18,0,.4,0,.71,0,.84,0,.63,0,.91-.19,1.14-.28.33-.7.48-.9.48-.33,0-.39-.23-.39-.73,0-.72-.48-.72-.94-.72h-2.99c-.62,0-.81.15-.86.68-.09.65-.43,1-.97,1ZM134.93,67.13c-.46,0-.82,0-.82.65v1.66c0,.6.4.6.82.6h3.3c.57,0,.82-.03.82-.77,0-1.03,0-1.6-.03-1.69-.1-.45-.3-.45-.79-.45h-3.3ZM134.88,64.16c-.7,0-.77.16-.77.91v1.2c.1.48.41.48.77.48h3.4c.36,0,.67,0,.77-.45v-1.4c0-.71-.26-.74-.77-.74h-3.4Z"/>
    </g>
    <g>
      <path d="M151.29,70.03c-1.07,0-2-3.2-2-5.13,0-1.24.16-1.82.82-4.24.35-1.27.35-1.78.35-2.15,0-.62-.11-1.17-.21-1.45-.05-.14-.11-.28-.11-.32.84.05,1.62,1.78,1.62,2.43,0,.19,0,.2-.36.84-.24.46-1.55,3.37-1.55,5.19,0,.66.23,1.33.66,1.33.46,0,.66-.45,1.09-1.64.03-.09.07-.19.1-.27-.01.14-.09.56-.16.97-.14.8-.3,1.71-.3,2.01s.16.7.3,1.02c.17.35.25.66.25.88,0,.33-.27.53-.51.53ZM158.67,69.24c-1.86,0-2.58-.46-3-.85-.36-.37-.57-.69-.57-.89,0,0,0-.01,0-.01.03,0,.14.08.21.12.07.05.13.09.16.1.6.31,1.44.35,2.19.35.52,0,1.24,0,1.74-.06.12,0,.5-.04.87-.08.41-.04.81-.08.86-.08.73,0,.77.44.77.53,0,.59-.32.87-3.23.87ZM158.67,59.53c-2.18,0-3.29-1.14-3.33-1.33.03.05.1.07.19.1.1.03.21.06.33.08.47.1,1.01.12,1.38.12.97,0,1.93-.2,2.23-.31.48-.17.59-.22.71-.22.37.05.79.33.79.72,0,.61-1.24.83-2.3.83Z"/>
      <path d="M170.78,70.48c-1.7,0-2.54-.3-3.13-.6-.97-.48-1.63-1.42-1.63-2.33,0-1.96,2.1-3.01,4.08-3.01.43,0,.99.03,2.1.35l.23.07c1.03.3,1.16.34,1.44.34.31,0,.84-.16.84-.78,0-1.33-2.7-4.39-3.35-4.39-.07,0-.25.06-1.15.37-.56.2-1.2.42-1.41.47-.54.13-1.05.14-1.2.14-2.01,0-2.77-1.5-2.77-1.76,0,0,.01,0,.02,0,.09,0,.33.12.54.23l.2.1c.72.35,1.49.55,2.11.55.67,0,2.24-.32,2.24-.82,0-.16-.16-.37-.97-.93-.56-.39-1.21-1.02-1.21-1.51,0-.59.52-.81.85-.81.37,0,.55.1,1.38.59-.29-.16-.41-.18-.55-.18-.22,0-.52.15-.52.5,0,.56.77,1.17.93,1.28.41.32.95.7,1.24.7.18,0,.88-.24.88-.78,0-.35-.15-.45-.76-.82-.39-.23-.68-.41-.9-.54.36.18.88.34,1.7.34h1.04c.19,0,.34,0,.41,0,.49.04.55.42.55.57,0,.41-.8,1.07-1.14,1.27-.57.36-.67.42-.67.64,0,.2.16.38.29.49.98.86,3.58,3.17,3.58,5.13,0,1.1-.89,1.19-1.17,1.19-.32,0-.43-.07-1.57-.69-1.33-.73-2.45-1.08-3.49-1.08-1.94,0-2.92,1.57-2.92,2.44,0,1.23,1.09,1.91,3.08,1.91.26,0,1.25-.1,1.77-.15.16-.02.27-.03.29-.03h.1c.49,0,.72.38.72.63,0,.82-1.48.91-2.12.91Z"/>
      <path d="M182.87,71.16c-.47,0-.54-.28-.75-1.36,0-.05-.52-2.33-.92-2.33-.19,0-.22.11-.37.64-.2.68-.52,1.01-.95,1.01-.39,0-.57-.35-.57-.59,0-.62.6-1.69.82-2.09l.08-.16c.1-.18.23-.43.23-.63,0-.16-.13-.61-.45-1.5-.44-1.13-.46-1.26-.46-1.58,0-.79.52-1.3.89-1.41l.33-.1c1.22-.37,1.84-.56,2.07-.74.18-.12.2-.34.2-.69,0-.93-.06-1.94-.53-2.96-.03-.06-.12-.19-.21-.33-.12-.18-.35-.52-.37-.61.01,0,.11-.05.32-.05.61,0,1.74.95,1.74,1.19,0,.08-.07.47-.12.73-.04.21-.07.39-.08.47-.02.12-.1.92-.1,1.44,0,.47.09.62.5.82.17.09.22.16.22.27,0,0,0,.23-.15.43l-.06.08c-.42.58-.44.61-.44.71v.14l.2.06c.1,0,.15-.03.59-.46.83-.79,3.34-3.21,5.18-3.21,1.49,0,1.8,1.21,1.8,2.22,0,.65-.08,1.52-.24,2.52-.29,1.96-.32,2.3-.32,3,0,.54,0,1.99,1.61,1.99.34,0,1.23,0,2.19-1.04.23-.27.32-.29.32-.29-.05.3-1.09,2.46-3.08,2.46-1.44,0-2.2-.95-2.2-2.75,0-.47.02-.68.24-1.84.33-1.76.54-3.65.54-4.17,0-1-.46-1.51-1.37-1.51-1.46,0-3.17,1.43-4.5,2.68-1.35,1.27-1.57,2.12-1.57,4.17,0,.84.06,1.99.16,2.58l.1.64c.11.72.14.87.14,1.18,0,.8-.25.97-.63.97ZM182.25,65.03c-.36,0-.92,1.52-.92,1.67,0,.43.61,1.57.84,1.57q.28,0,.28-2.22c0-.06.01-.29.03-.46,0-.12.01-.22.01-.23,0-.28-.15-.32-.24-.32ZM182.31,61.3c-.18,0-2.36.42-2.36,1.55,0,.55.43,2.32.8,2.32.16,0,.3-.18.35-.28.04-.09.57-1.13.89-1.75l.32-.63c.32-.65.42-.87.36-1.01-.03-.08-.12-.21-.35-.21Z"/>
      <path d="M205.04,70.58c-2.6,0-3.92-1.38-3.92-4.1,0-1.87.37-5.33,2.85-7.53.52-.39.52-.48.52-.52,0-.07-.03-.18-.26-.18-1.18,0-5.39,1.82-5.96,2.14-.29.16-.45.24-.63.24-.56,0-1.17-.51-1.45-1-.13-.22-.14-.35-.12-.38.11.02.3.06.44.09.12.03.18.04.23.04.86,0,1.15-.07,3.91-.86l.24-.07c1.82-.51,6.09-1.71,7.34-1.71.58,0,1.45.22,1.45.81,0,.41-.43.59-.65.59-.13,0-.48-.06-.82-.11-.35-.05-.69-.11-.81-.11-2.64,0-5.48,2.37-5.48,7.58,0,3.41,1.32,3.69,2.56,3.69.17,0,.73-.04,1.2-.07.33-.02.62-.05.69-.05.32,0,.85.08.85.59,0,.9-2.07.91-2.16.91Z"/>
      <path d="M214.54,69.02c-1.23,0-3.63-2.02-3.63-5.73,0-.28.07-1.05.14-1.8.07-.75.14-1.45.14-1.71,0-.43-.08-.97-.14-1.19l-.04-.13c-.11-.38-.12-.43-.12-.51.78.06,1.64,1.55,1.64,2.04,0,.09-.02.14-.11.4l-.12.35c-.29.81-.48,1.56-.48,2.61,0,2.08,1.07,3.59,1.79,3.59.42,0,.54-.17,1.13-1.16.17-.28.42-.58.5-.61-.05.08-.09.33-.11.37-.22.93-.26,1.12-.26,1.55,0,.38.07.66.12.83l.03.12c.04.15.12.43.12.5,0,.31-.36.47-.61.47ZM223.13,65.41c-.55,0-.83-.4-.83-1.19,0-1.64,0-2.54-1.09-3.63-.05-.05-.17-.15-.3-.26-.2-.17-.57-.48-.61-.57.05.08,1.16.14,1.98.8,1.06.85,1.71,2.26,1.71,3.68,0,.79-.28,1.17-.85,1.17Z"/>
      <path d="M237.82,70.78c-2.62,0-5.75-.55-5.75-3.17,0-.31.05-.54.1-.66.02.06.05.16.09.31.5,2.06,3.12,2.27,4.22,2.27.17,0,.65-.04,1.12-.07.45-.03.89-.07,1.04-.07.61,0,1.45.29,1.45.85,0,.41-.53.53-2.28.53ZM226.56,70.27c-.38,0-.39-.66-.39-.73,0-.2.1-.4.7-1.52,2.06-3.91,2.64-7.34,2.64-7.37,0-.34-.2-.34-.86-.34-.31,0-1.04,0-1.7-.34-.53-.26-.85-.68-.93-.87.04.04.1.07.15.09.08.04.16.07.19.08.31.1,1.13.22,1.8.22.01,0,1.26,0,1.5-.21.24-.21.27-1.72.27-1.73,0-.72-.14-1.11-.26-1.3l-.11-.13c-.1-.11-.4-.45-.42-.54,0-.07.27-.3.75-.3.82,0,1.44.76,1.45.91,0,.03-.06.16-.1.24-.08.18-.12.28-.12.35,0,.56,1.83.86,1.93.86.04,0,.16,0,.29-.02.13-.01.28-.02.33-.02.25,0,.51.06.51.47,0,1-1.65,1.57-2.89,1.91-.68.18-.84.22-.93.66-.98,4.17-1.02,4.32-1.4,5.5l-.04.13c-1.34,4.03-2.03,4.03-2.33,4.03ZM231.24,57.31c-.25,0-.32.18-.36.35l-.07.39c-.02.14-.05.27-.1.54-.02.14-.04.26.04.35l.04.05.14.03c.09,0,1.75-.52,1.75-.94,0-.35-1.23-.78-1.43-.78ZM236.56,62.41c.45-.41.65-.6.65-.77,0-.11,0-.46-1.85-.46-.31,0-.91.01-1.45.08-.1.02-.45.06-.59.08.36-.26,1.71-.8,3.49-.8s3.17.54,3.17,1.29c0,.28-.17.33-.43.33-.09,0-.34-.02-.57-.03-.23-.01-.46-.03-.54-.03-.37,0-.68,0-1.52.33l-.17.06c-.2.07-.34.12-.44.15.08-.07.17-.15.25-.23ZM233.23,61.43"/>
    </g>
    <path d="M255.81,74.21c-.3,0-.46,0-.46-1.18,0-.23.02-.92.03-1.64.02-.77.04-1.57.04-1.86,0-.65,0-1.31.01-1.96,0-.66.01-1.31.01-1.97,0-.79-.63-.79-.84-.79h-2.26c-.61,0-2.22,0-3.07.07,0,0-.12.01-.23.02-.11.01-.22.03-.27.03-.02,0-.07-.06-.11-.1l-.43-.52c.1,0,.24.02.37.03.23.02.46.04.54.04.64.04,1.91.1,3.33.1h2.12c.19,0,.71,0,.84-.57.02-.15.03-3.51.03-4.95,0-.65-.48-.74-.77-.74h-2.41c-.31,0-.69,0-1.09.75l-.15.26c-.42.73-1.69,2.96-1.99,3.08.08-.06.33-.65.48-1,.11-.25.2-.47.23-.57l.04-.1c1.02-2.73,1.57-4.84,1.59-6.09,0-.27.02-.36.04-.38.27.13,1.84.92,1.87,1.18-.02.03-.13.09-.33.18-.44.22-1,1.67-1,1.86,0,.29.24.46.65.46h2.05c.54,0,.82-.28.82-.84,0-.73-.02-1.29-.04-1.67,0-.18-.01-.32-.01-.41,0-.16-.02-.64-.05-1.14-.02-.53-.05-1.07-.05-1.27,0-.06,0-.12,0-.14.29.1,2.02.59,2.1.85-.02.03-.16.22-.25.33-.15.19-.24.31-.27.39-.08.31-.13.51-.13,2.98,0,.32,0,.91.82.91h1.01c1.12,0,1.33,0,1.66-.47.62-.8.68-.86.82-.86.27.03,1.73,1.26,1.79,1.5,0,.18-.41.19-1.14.19h-4.14c-.57,0-.82.24-.82.82.01.31.02,1.36.02,4.63,0,.82.62.82.89.82h1.93c1.13,0,1.3,0,1.65-.47.62-.83.67-.88.83-.88.27.04,1.73,1.29,1.79,1.53,0,.16-.56.16-1.16.16h-5.04c-.86,0-.86.55-.86.99,0,.49.02,1.92.03,3.38.02,1.55.04,3.14.04,3.73,0,.63-.08,1.3-1.09,1.3ZM245.86,74.16c-.23,0-.41,0-.41-.73,0-.05.02-.38.03-.73.02-.42.04-.89.04-.98.17-3.42.26-9.21.26-9.97,0-.48,0-1.38-.07-1.9-.08-.5-.28-.77-.55-.77-.15,0-.39.22-1.27,1.1-.61.61-1.74,1.74-1.99,1.74.04-.01.51-.66,1.01-1.35.89-1.23,2-2.77,2.29-3.23.5-.75,1.84-3.08,2.04-4.76.02-.19.09-.19.12-.19.15,0,.79.39,1.06.55.14.08.25.15.3.18l.1.05c.37.18.69.34.69.52-.03.06-.3.26-.41.33-.07.05-.13.1-.15.12-.41.41-.93,1.07-2.28,2.83-.3.41-.44.6-.44.79,0,.36.26.51.52.61.24.11.61.27.61.35,0,.01-.04.11-.27.45-.14.24-.14.43-.14.66v11.64c0,.1,0,.33.01.59.01.51.03,1.2.01,1.37-.06.59-.65.71-1.14.71Z"/>
  </g>
  <g>
    <g>
      <path class="cls-1" d="M28.89,40.48c-1.5,0-3.01-.72-3.01-2.33,0-1.34,1.16-2.24,1.37-2.26l-.12.12c-.1.13-.31.41-.31.94,0,1.06.8,1.67,2.2,1.67,2.32,0,4.83-1.54,4.83-4.02,0-2.22-1.64-3.59-3.16-3.59-.78,0-2.65.3-6.5,2.34-1.79.96-2.02,1.08-2.02,1.71,0,.18.02.63.05,1.07.02.42.04.82.04.97,0,1.33-.44,3.29-1.4,3.29-.68,0-.98-.47-1.26-1.05-1-1.94-1.19-2.02-1.71-2.02-.27,0-.54.1-.74.16-.17.07-.27.13-.4.21-.21.13-.69.42-.81.43-.24,0-1.74-.85-1.74-1.77,0-.48.29-1.03.72-1.03.09,0,.35.04.61.08.28.04.56.08.66.08.86,0,1.42-.15,3.3-1.07,1.58-.78,1.87-.92,1.87-1.9,0-.73-.03-3.36-.06-3.88,0-.34-.16-.85-.62-.85-.4,0-1.28.22-1.48.29l-.3.1c-1.28.43-1.44.48-1.84.48-.89,0-2.01-1.95-2.05-2.19.02,0,.05,0,.07,0,.08,0,.15.02.23.04.16.04.26.07.33.07.63.11,1.06.16,1.42.16,1.1,0,3.81-.73,4.06-.98.24-.33.36-3.48.36-3.51,0-.99-.17-1.66-1.07-2.6-.34-.34-.39-.42-.4-.43.01-.01.28-.09.51-.09,1.97,0,3.01,1.43,3.01,1.92,0,.14-.27.73-.42,1.04-.11.24-.2.44-.22.52-.01.08-.04.19-.06.34-.09.48-.25,1.29-.25,1.73,0,.25.15.52.43.52.25,0,1.27-.37,1.27-.96,0-.06-.03-.13-.09-.29-.03-.07-.06-.13-.07-.17.51.08,1.68.48,1.68,1.23,0,.86-2.18,1.76-2.89,2.05-.64.23-.67.47-.73,1.56-.06.65-.06,2.91-.06,3.35,0,.18,0,.74.46.74.07,0,.18-.03,1.96-.76.54-.22,1.04-.42,1.23-.49,2.91-1.09,4.31-1.23,5.2-1.23,2.21,0,4.59,1.72,4.59,4.49,0,4.07-4.34,5.76-6.66,5.76ZM20.99,35.24c-.14,0-2.26,1-2.26,1.61,0,.55.9,1.64,1.48,1.64.62,0,1.05-1.06,1.05-2.57,0-.33-.03-.55-.17-.65l-.05-.03h-.06ZM36.27,28.64l.11-.18c.07-.17.12-.34.12-.56,0-1.27-1.44-1.85-2.78-1.85-.52,0-.83.13-1.25.31-.14.07-.21.09-.27.09.12-.17,1.35-1.71,3.22-1.71,2.4,0,3.66,1.25,3.66,2.48,0,.53-.3,1.3-.84,1.3-.09,0-.33-.02-.56-.03-.22-.02-.42-.03-.5-.03-.09.01-.22.05-.36.08-.18.05-.5.13-.57.13v-.04Z"/>
      <path class="cls-1" d="M42.67,44.07c-.51,0-.69-.3-.69-.56,0-.11.12-1.56.15-1.9.16-2.86.16-6.36.16-11.2,0-6.35,0-10.54-.12-11.85-.04-.32-.15-1.16-.15-1.31.3.03,1.05.34,1.38.5.56.3.91.3,1.35.3h1.98c.46,0,.91-.04,1.32-.56,0,0,.04-.05.09-.11.06-.08.2-.26.26-.3.18.08,1.81,1.11,1.93,1.35,0,.04-.38.25-.68.42-.12.09-.42.54-1.42,2.04-.62.94-1.26,1.91-1.5,2.22-.05.07-.15.2-.27.36-.79,1.03-.82,1.11-.82,1.21,0,.19.25.5.74.94,2.33,2.13,2.82,3.97,2.82,5.13,0,3.17-2.19,5.58-3.29,5.58-.13-.08-.47-.92-.6-1.23-.07-.16-.12-.3-.16-.37,0,0-.38-.72-.84-.72-.12,0-.4.05-.4.55,0,.62.02,2.32.05,3.97.02,1.56.04,3.09.04,3.61,0,.96,0,1.1-.35,1.49-.26.26-.66.44-.98.44ZM44.96,18.52c-.54,0-1.05.1-1.17.8-.03.18-.03,6.17-.03,8.73,0,3.34.06,4.99.2,5.33.23.58,1.58.64,2.15.64.33,0,.75-.05.99-.46.54-.8.74-2.46.74-3.32,0-1.61-.49-2.97-1.65-4.54l-.24-.34c-.31-.44-.34-.48-.34-.67.02-.03.17-.4.38-.91.86-2.07,1.69-4.13,1.69-4.57,0-.71-.6-.71-.89-.71h-1.83ZM62.99,43.94c-.5,0-.5-.28-.5-.5,0-.19.03-.69.06-1.18.03-.48.06-.95.06-1.12,0-1.88-.03-1.98-.04-2.03-.16-.63-.67-.63-1.01-.63h-1.49c-.7,0-2.82,0-3.91.06h0s-.19.02-.34.05c-.13.02-.25.04-.3.04-.02,0-.05-.04-.12-.12l-.59-.71c.32.01.84.05,1.34.08.6.04,1.18.07,1.38.07.99,0,.99-.52.99-1.54,0-2.93-.03-3.27-.22-4.1-.01-.06-.05-.16-.1-.28-.02-.05-.04-.11-.06-.17.3.09.86.32,1.16.44.23.09.41.16.5.19.34.09.69.13,1.14.13h.59c1.02,0,1.02-.63,1.02-1.3,0-1.63-.03-1.88-.1-2.23-.14-.29-.15-.35-.15-.36.05.12.86.32,1.4.46.39.1.72.18.83.2.19.06.2.09.2.16-.02.02-.21.2-.3.28-.11.1-.17.16-.2.21-.19.33-.19.49-.19,1.5,0,.35,0,1.08.83,1.08.25,0,.54-.02.73-.25.04-.03.18-.19.32-.38.16-.2.5-.63.61-.67.21.11,1.75,1.4,1.81,1.69-.04.06-.28.06-.53.06h-2.76c-1.02,0-1.02.75-1.02,1.3,0,2.84.03,2.97.03,3.01.14.64.73.64,1.02.64.66,0,.79-.13,1.34-.74l.28-.31c.16-.18.27-.3.3-.32.22.1,1.88,1.29,1.93,1.59,0,.15-.17.22-.59.22-.1,0-1.04.03-1.12.03h-2.14c-.99,0-.99.68-.99,1.05,0,.34.11,1.49.19,2.41.05.51.09.93.09.99,0,.65-1.17,1-1.4,1ZM60.85,33.07c-.86,0-.86.39-.86,2.29s.05,2.03.07,2.09c.16.57.57.57,1.48.57,1.08,0,1.08-.39,1.08-2.26s-.05-2.04-.07-2.1c-.16-.59-.54-.59-1.69-.59ZM47.63,42.63c.59-.4,1.37-.96,1.87-1.37,1.69-1.37,3.07-3.29,3.07-3.55,0-.22-.26-.31-.43-.31-.28-.03-.44-.04-.54-.42-.27-1.16-.51-2.18-1.23-2.18-.24,0-.6.3-1.38,1.03-.22.21-.42.39-.52.46-.4.31-.82.57-1.15.76,2.09-2.14,3.75-4.76,4.95-7.82.06-.14.15-.35.19-.39.18.05,1.98.56,2.13.8,0,.03,0,.04-.43.21l-.12.05c-.07.05-.98,1.1-.98,1.53,0,.14.06.47.58.47.06,0,.12,0,.18-.01h.82c.28,0,.4,0,.71-.1.07-.04.13-.09.2-.15.1-.09.34-.28.41-.31,1.19.47,1.59.78,1.62.88,0,.08-.03.22-.3.36-.32.14-.44.21-.7.7-1.66,3.22-3.46,5.63-5.53,7.38-.92.79-2.51,1.69-3.44,1.99ZM53.26,32.36c-.61,0-.95,0-1.59.71-.07.09-.2.24-.35.42-.66.78-.75.92-.75,1.04,0,.24.3.41,1.03.73.11.05.2.09.24.11.49.29.65.53.87.9.18.39.23.49.37.49.43,0,2.07-3.37,2.07-3.74,0-.65-.6-.65-.83-.65h-1.05ZM57.44,29.91c-.35,0-.47-.03-.47-.38,0-.12.05-.47.1-.81.05-.34.09-.66.09-.77.06-.86.09-1.61.09-2.29,0-.14-.03-1.69-.03-1.83,0-.48-.23-.55-.37-.55-.21,0-.81.81-.81.81-1.64,1.92-2.91,3.09-5.65,4.41,0,0-.01,0-.02,0,3.02-2.59,4.64-5.28,4.64-5.82s-.48-.55-.68-.55c-1.22,0-2.73,0-3.98.09h0c-.07,0-.35.02-.59.04-.16.01-.29.02-.32.02-.02,0-.09-.07-.15-.13l-.56-.68c.13,0,.31.02.49.04.3.02.6.05.71.05,1.29.06,2.76.12,4.24.12h1.98c1.05,0,1.05-.77,1.05-1.33,0-1.9,0-2.86-.03-3.21,0-.07-.03-.32-.07-.55-.03-.19-.06-.37-.06-.42,0,0,.02,0,.03,0,.29,0,1.62.28,2.21.45.17.05.33.16.33.26,0,.1-.02.14-.43.37-.25.18-.34.34-.34.56-.09.64-.09,1.77-.09,2.45,0,.79,0,1.42,1.2,1.42h3.22c.86,0,.93,0,1.14-.07.23-.08.56-.49,1.09-1.15.22-.27.49-.61.56-.66.19.12,2.07,1.71,2.07,2.1,0,.1-.1.22-.84.22h-6.57c-.17,0-.55,0-.55.4,0,.82,2.54,2.7,5.94,3.98.36.14,2.1.56,3.08.78l-.06.02c-1.52.47-1.9.92-2.39,1.62-.03.06-.1.13-.13.14-.41-.08-4.83-2.49-6.53-6.06-.29-.63-.35-.79-.72-.79-.49,0-.49.42-.49.55,0,.46.03,1.73.06,2.97.03,1.17.06,2.31.06,2.7,0,.58,0,1.46-1.49,1.46ZM60.55,20.74c.07-.11.2-.29.42-.59.96-1.53,1.5-2.76,1.61-3.17.02-.06.06-.25.09-.41.57.19,2.08,1,2.12,1.27,0,.27-.48.37-.89.4-.2.02-.57.31-1.5,1.09-.57.48-1.48,1.23-1.86,1.41ZM53.73,20.59c-.42,0-.53-.24-.9-1.28-.38-1.11-.71-1.66-.99-2.13l-.05-.08h0c1.5.71,2.8,1.32,2.8,2.35,0,.32-.16,1.15-.87,1.15Z"/>
      <path class="cls-1" d="M80.32,40.1s-.07,0-.08-.01c0,0,0,0,0,0,.08,0,.35-.11.61-.21,2.88-1.14,8.89-3.51,8.89-10.44,0-1.82-.56-7.75-7.75-7.75-.51,0-.76.18-.76.56,0,.06.02.12.03.18l.03.15.07.55c.1.71.2,1.44.2,2.38,0,1.59-.29,4.13-2.78,7.91-2.27,3.46-3.61,3.91-4.52,3.91-1.72,0-3.23-2.79-3.23-5.97,0-2.54,1-4.84,2.98-6.84,3.42-3.5,7.04-3.5,8.59-3.5,2.29,0,3.43.41,4.32.86,2.91,1.43,4.65,4.34,4.65,7.79s-2.09,7.81-6.76,9.45c-2.36.83-4.13,1-4.48,1ZM80.46,21.77c-2.85,0-8.11,3.66-8.11,8.87,0,1.7.69,4.39,2.56,4.39.92,0,1.64-.47,3.49-3.25,1.7-2.59,2.71-5.6,2.71-8.05,0-1.56-.08-1.96-.65-1.96Z"/>
      <path class="cls-1" d="M125.43,43.98c-.49,0-.59-.37-.59-1,0-.89.03-3.49.06-6.16.03-2.8.06-5.66.06-6.7,0-.62,0-.96-.06-2.45,0-.17-.03-1.04-.55-1.04-.25,0-.43.19-.86.65l-.11.12c-1.7,1.71-2.68,2.51-2.88,2.54,0-.05.13-.2.18-.26,1.04-1.4,2.23-3.3,3.27-4.98,2.39-3.92,3.4-7.35,3.43-7.79.05-.52.08-.84.13-.89.45,0,2.91,1.45,2.98,1.84,0,.1-.02.13-.43.35l-.13.07c-.46.23-3.57,4.84-3.47,5.46.05.25.31.44.44.5.52.32.52.33.52.39-.02.05-.2.27-.31.4-.16.2-.26.31-.29.4-.05.1-.23.46-.23,4.8,0,1.28.03,7.97.12,10.04,0,.13.03.53.06.94.03.39.06.78.06.92,0,1.37-.96,1.83-1.4,1.83ZM129.09,43.73s-.07-.02-.08-.04c.07-.02.54-.16.88-.26,5.49-1.58,6.85-4.87,6.85-5.29,0-.24-.23-.49-.74-1.02l-.12-.12c-1.87-1.87-2.37-3.99-2.37-4.21,0-.05,0-.13.07-.13.07,0,.16.19.3.48.85,1.93,2.81,3.67,3.17,3.67.7,0,.8-4.32.8-4.36,0-.36,0-1.3-1.17-1.3h-3.04c-.69,0-.79.27-1.04.92-.14.4-.57.6-1.32.6-.22,0-.62,0-.62-.72,0-.29.02-1.06.05-1.82.02-.72.04-1.41.04-1.65,0-.32-.02-1.2-.05-2.06-.02-.81-.04-1.6-.04-1.87,0-.22.03-.26.03-.27h0c.24,0,.87.32,1.14.46.15.08.27.14.33.17.53.26.84.33,1.65.33h2.88c.68,0,1.08-.35,1.08-.93,0-2.75,0-3.25-1.14-3.25h-1.36c-.7,0-2.83,0-3.92.09h0c-.06,0-.22.02-.37.04-.12.01-.22.03-.26.03-.03,0-.05,0-.13-.11l-.6-.69c.36.02,1.02.09,1.17.11,1.46.07,2.81.1,4.27.1h1.15c.71,0,1.05-.32,1.05-.99,0-.51-.05-1.12-.08-1.51l-.07-.5c-.06-.4-.16-1.07-.16-1.24,0-.23.05-.25.28-.25.57,0,2.61.42,2.61.84-.01.05-.16.24-.24.35-.13.17-.2.27-.22.35-.13.41-.16.84-.16,2.03,0,.93.81.93,1.11.93h2.38c1.42,0,1.63,0,2.12-.59l.1-.11c.77-.91.83-.97,1.03-.97.33.03,2.12,1.55,2.2,1.88,0,.24-.66.24-1.49.24h-6.35c-1,0-1.11.69-1.11.99,0,2.95,0,3.19,1.08,3.19h3.13c.83,0,1.04-.12,1.41-.6.29-.38.47-.43.57-.43.41,0,1.92,1.03,1.99,1.29,0,.09,0,.09-.4.4-.63.49-.63.79-.63,2.75v.73c.02.88.05,2.36,0,2.62-.03.35-.53.96-1.18.96-.54,0-.62-.28-.69-1.01-.03-.27-.1-.78-.96-.78h-3.22c-1.03,0-1.05.4-1.14,2.09-.06,1.25-.41,3.07-.71,4.37.2.75,4.84,2.86,9.53,2.86.4,0,.73,0,.9.02-.05.04-.11.09-.15.12-.07.06-.14.11-.17.14-.84.87-1.26,1.31-1.55,1.91-.14.29-.25.52-.29.55-.35,0-3.06-.52-6.95-2.8-.08-.05-.22-.15-.39-.27-.82-.57-1.25-.84-1.49-.84-.2,0-.41.21-.88.74-.17.19-.34.39-.49.52-1.16,1.1-3,2.44-7.06,3.08-.16.03-.63.09-.78.09ZM140.7,25.67c-.27,0-1.08,0-1.08,1.05,0,3.12.03,3.23.04,3.27.09.49.42.73,1.04.73h3.19c.71,0,1.05-.35,1.05-1.08,0-3.06-.03-3.16-.04-3.2-.05-.49-.39-.76-1.01-.76h-3.19ZM133.77,25.67c-1.17,0-1.17.43-1.17,2.5s0,2.54,1.17,2.54h2.94c1.17,0,1.17-.38,1.17-2.51s0-2.54-1.17-2.54h-2.94Z"/>
      <path class="cls-1" d="M155.58,43.94c-.57,0-.62-.32-.62-.65,0-.48.04-1.17.07-1.8.02-.35.04-.68.05-.95.06-1,.28-9.57.28-9.95,0-.25-.13-.43-.31-.43-.09,0-.3.06-.46.3-2.66,4.13-3.63,5.06-3.98,5.09.08-.04.32-.4.57-.78.3-.45.62-.92.71-1.08,2.14-3.62,3.06-8.3,3.06-8.8,0-.55-.34-.83-1.02-.83-.19,0-.78.05-1.33.09-.46.04-.88.07-.99.07-.02,0-.05-.04-.12-.12l-.62-.72c.37.01,1.01.05,1.65.09.75.05,1.49.09,1.75.09,1.2,0,1.2-1.08,1.2-1.48,0-1.47,0-3.28-.03-3.52-.03-.31-.1-.76-.17-1.2-.08-.49-.17-1.01-.17-1.23.16,0,1.35.19,2.29.54.17.07.25.13.25.26,0,.09-.19.47-.3.69-.15.3-.23.47-.25.58-.22.84-.31,3.66-.31,4.65,0,.68.38.74.8.74.23,0,.76,0,1.11-.55.46-.7.48-.72.62-.72.27.03,1.63,1.26,1.74,1.53,0,.21-.66.21-1.5.21h-1.7c-1.17,0-1.17.49-1.17,1.95,0,.56.26.71.88,1.06,2.48,1.39,2.81,2.41,2.81,3.31,0,.83-.39,1.37-.99,1.37-.75,0-.87-.53-1.12-2.2-.16-.95-.8-1.98-1.23-1.98-.13,0-.34.07-.34.55,0,.71,0,2.21.01,3.97.02,3.64.04,8.18.02,9.44,0,1.46-.08,2.42-1.15,2.42ZM167.5,43.85c-.08,0-.1-.03-.17-.15-.6-1.25-2.16-1.94-2.55-2.1.15,0,.33.02.51.03.36.02.72.05.85.05,1.92,0,1.98-.34,1.98-2.13,0-1.95,0-7.13-.03-7.88,0-.68-.36-1.07-.99-1.07-1.3,0-3.69.03-4.45.13l-.23.03s-.04,0-.13-.11l-.6-.69c.11,0,.24.02.37.03.25.03.5.05.57.05,1.09.06,3.02.12,4.21.12.55,0,1.24,0,1.24-1.05,0-2.02,0-2.44-1.05-2.44-.95,0-2.66.03-3.48.09h0c-.06,0-.23.02-.39.04-.12.01-.24.03-.28.03,0,0-.03-.02-.1-.11l-.6-.69c.17.01.37.03.57.04.28.02.54.04.62.04,1.5.08,2.73.12,3.65.12,1.05,0,1.05-.76,1.05-1.27,0-1.69,0-2.26-1.05-2.26h-.77c-.87,0-2.49.03-3.11.06-.12.03-.56.09-.64.09-.02,0-.06-.04-.12-.12l-.58-.71c.35.02.99.09,1.14.11.11,0,.37.01.73.02.84.03,2.23.07,3.26.07h2.04c.87,0,1.21-.16,2.77-3.61.34-.78.61-1.71.72-2.11.03-.1.05-.17.06-.19.03-.15.06-.17.06-.17.32.08,2.45,1.02,2.56,1.33,0,.1-.11.22-.69.57-.52.31-3.74,3.51-3.74,3.81,0,.25.29.37.59.37,1.88,0,2.17,0,2.57-.61.66-1.03.67-1.03.9-1.03.31.08,2.62,1.53,2.73,1.88,0,.22-.54.23-1.49.23h-5.05c-1.01,0-1.27.25-1.27,2.5,0,.68.38,1.02,1.14,1.02h.81c1.27,0,1.43,0,1.73-.26.08-.08.22-.27.38-.49.22-.3.67-.93.82-.98.25.11,2.46,1.62,2.56,1.94,0,.22-.5.24-1.46.24h-4.92c-1.14,0-1.14.51-1.14,2.41,0,1.08.79,1.08,1.17,1.08h2.2c1.32,0,1.53,0,1.89-.33.09-.08.22-.25.42-.54.19-.26.54-.76.66-.81.19.11,2.32,1.57,2.43,1.89,0,.22-.54.23-1.49.23h-.99c-.57,0-.62.33-.62.43,0,.18.18.36.71.82.28.25.79.71.81.85,0,.1,0,.11-.71.35-1.26.45-1.51.68-3.47,2.42-.25.22-.37.33-.37.6,0,.85,3.76,3.73,6.76,3.89-.19.1-.41.22-.6.32-.39.21-.78.42-.91.5-.07.05-.21.17-.36.31-.24.21-.75.65-.88.69,0,0-3.14-1.18-5.76-7.29l-.13-.28c-.17-.39-.22-.51-.44-.51-.34,0-.34.35-.34.46,0,.08-.03.9-.03.96,0,.5.07,1.85.15,3.14.07,1.21.13,2.37.13,2.77,0,1.3-.22,1.9-.84,2.29-.64.4-1.29.53-1.48.53ZM170.7,30.6c-.31,0-1.14,0-1.14.96,0,.62,1.42,3.74,2.1,3.74.86,0,3.03-3.69,3.03-4.15,0-.21-.08-.55-.58-.55h-3.41ZM161.81,41.81c-.34-.11-1.61-2.17-1.75-2.51.12.03.24.04.38.04.25,0,.53-.05.83-.12.9-.26,2.26-.75,3.42-1.38.28-.16,1.11-.6,1.54-.82-.29.33-.95.96-1.51,1.48-1.13,1.07-2.3,2.17-2.52,2.67-.07.19-.24.62-.38.63ZM164.69,36.02c-.56,0-.76-.39-1.13-1.2-.27-.61-1.01-2.18-2.13-3.48,0,0,0,0,.01,0,.26,0,2.16.98,3.08,1.78.24.19.99.89.99,1.94,0,.29-.08.96-.81.96ZM166.14,21.3c-.4,0-.53-.44-.69-1.1-.31-1.33-.82-2.55-1.54-3.65-.14-.23-.16-.26-.16-.3.34.06,1.72.7,2.87,1.95.57.66.63,1.18.63,1.52,0,1.08-.67,1.58-1.12,1.58Z"/>
    </g>
    <g>
      <path d="M186.6,38.87c-1.07,0-2-3.2-2-5.13,0-1.24.16-1.82.82-4.25.35-1.27.35-1.77.35-2.14,0-.62-.11-1.17-.21-1.45-.05-.14-.11-.28-.11-.32.84.05,1.62,1.78,1.62,2.43,0,.19,0,.2-.36.84-.24.46-1.55,3.37-1.55,5.19,0,.66.23,1.33.66,1.33.46,0,.66-.45,1.09-1.64.03-.09.07-.19.1-.27-.01.14-.09.56-.16.97-.14.8-.29,1.71-.29,2.01s.16.7.3,1.03c.17.34.25.65.25.88,0,.33-.27.53-.51.53ZM193.98,38.08c-1.86,0-2.58-.46-3-.85-.36-.36-.57-.69-.57-.89,0,0,0-.01,0-.01.03,0,.15.08.21.12.07.04.13.08.16.1.6.31,1.44.35,2.19.35.52,0,1.24,0,1.74-.06.13,0,.53-.05.91-.08.39-.04.77-.07.82-.07.73,0,.77.44.77.53,0,.59-.32.87-3.23.87ZM193.98,28.38c-2.18,0-3.29-1.14-3.33-1.33.03.05.1.07.19.1.1.03.21.06.33.08.46.1,1.01.12,1.38.12,1.03,0,1.96-.21,2.23-.3.47-.17.59-.22.71-.22.37.05.79.33.79.72,0,.61-1.24.83-2.3.83Z"/>
      <path d="M204.92,37.86c-1.23,0-3.63-2.02-3.63-5.73,0-.28.07-1.05.14-1.8.07-.75.14-1.45.14-1.71,0-.42-.08-.97-.14-1.19l-.03-.12c-.11-.38-.12-.43-.12-.51.78.06,1.64,1.55,1.64,2.04,0,.09-.02.14-.11.4l-.12.35c-.29.81-.48,1.56-.48,2.61,0,2.08,1.07,3.59,1.79,3.59.42,0,.54-.17,1.13-1.16.17-.28.42-.58.5-.61-.05.08-.09.32-.1.37-.22.93-.27,1.12-.27,1.55,0,.38.07.66.12.83l.03.11c.04.15.12.44.12.5,0,.31-.36.47-.61.47ZM213.51,34.25c-.55,0-.83-.4-.83-1.19,0-1.64,0-2.54-1.09-3.63-.05-.05-.17-.15-.3-.26-.2-.17-.57-.48-.61-.57.05.08,1.16.14,1.98.8,1.06.85,1.71,2.26,1.71,3.68,0,.79-.28,1.17-.85,1.17Z"/>
      <path d="M223,37.82c-.28,0-.33-.04-.33-.12.03-.03.25-.06.56-.1l.13-.02c4.9-.7,6.21-4.16,6.21-6.09,0-2.38-1.96-3.45-3.35-3.45-1.91,0-4.71,1.47-6.53,2.72-.99.69-1.26.79-1.74.79-1.12,0-2.16-1.08-2.16-1.56,0-.15.06-.18.16-.18.09,0,.37.07.6.12.31.07.51.12.61.12.49,0,.75-.11,2.79-.94l.57-.23c1.08-.43,3.6-1.43,5.38-1.43,2.76,0,4.92,2.09,4.92,4.76,0,1.29-.46,2.42-1.4,3.37-1.42,1.43-3.76,2.24-6.41,2.24Z"/>
      <path d="M240.12,39.49c.08,0,.24-.07.41-.14,2.1-.83,6.46-2.55,6.46-7.59,0-1.32-.41-5.64-5.64-5.64-.38,0-.56.14-.56.42l.04.24.05.4c.07.51.14,1.04.14,1.73,0,1.15-.21,3-2.02,5.73-1.65,2.51-2.61,2.83-3.27,2.83-1.25,0-2.34-2.02-2.34-4.32,0-1.84.73-3.51,2.16-4.96,2.48-2.54,5.11-2.54,6.23-2.54,1.66,0,2.49.3,3.13.62,2.11,1.04,3.37,3.15,3.37,5.65s-1.52,5.66-4.9,6.85c-1.71.6-2.99.73-3.25.73,0,0-.01,0-.02,0ZM240.24,26.18c-2.07,0-5.89,2.66-5.89,6.45,0,1.24.51,3.2,1.87,3.2.67,0,1.2-.34,2.54-2.36,1.23-1.88,1.97-4.07,1.97-5.85,0-1.08-.04-1.43-.48-1.43Z"/>
      <path d="M250.84,40.99c-.16,0-.37-.06-.37-.55v-.16c.01-.18.02-.45.02-.63.2-5.89.2-7.2.2-9.38,0-1.95,0-4.22-.02-4.45-.02-.15-.11-1.73-.12-1.82.01,0,.03,0,.05,0,.18,0,.56.2.7.27.57.31.65.34.97.34h2.94c.23,0,.4,0,.66-.26.17-.19.32-.34.44-.34.19.02,1.05.68,1.07.87-.02.03-.17.2-.24.27-.05.05-.09.1-.11.12-.17.21-.17.4-.17.96,0,.25.02.98.05,1.72.03.78.05,1.59.05,1.89,0,1.09-.58,1.15-.69,1.15-.31,0-.39-.18-.43-.57-.08-.54-.43-.54-.8-.54h-2.46c-.34,0-.73,0-.87.35-.05.12-.07.53-.07,1.46s0,4.27.02,5.02c.02.46.08,2.54.08,3.01,0,.55-.09,1.29-.89,1.29ZM252.37,27.35c-.38,0-.74,0-.74.54v1.15c0,.58.31.58.74.58h2.8c.38,0,.74,0,.74-.54v-1.13c0-.6-.34-.6-.74-.6h-2.8ZM252.37,24.85c-.48,0-.72.03-.72.64v1.07c0,.56.33.56.72.56h2.84c.5,0,.72-.03.72-.66v-1.07c0-.54-.33-.54-.72-.54h-2.84ZM264.29,40.99c-.14,0-.25-.15-.43-.47-.12-.2-.26-.43-.61-.63-.04-.02-.15-.07-.29-.11-.12-.04-.34-.12-.48-.19.19-.03.49-.05.66-.05,1.28-.06,1.62-.16,1.69-.84.02-.22.06-5.32.06-8.03,0-.76-.42-.76-.92-.76h-2.58c-.53,0-.64.16-.71.53-.05.36-.48.52-.77.52-.11,0-.27,0-.34-.27,0-.11-.02-2.24-.02-4.29,0-.15-.02-.57-.05-1-.03-.46-.05-.93-.05-1.1,0-.07.03-.2.08-.2.22,0,.58.17.85.29.28.14.36.14.6.14h3.39c.23,0,.32,0,.52-.2.23-.25.28-.28.34-.28.17.03,1.15.62,1.15.87,0,.06-.08.14-.17.21-.37.32-.37.43-.37,1.16,0,.89,0,3.47.02,6.13,0,2.81.02,5.7.02,6.75,0,.78-.1,1.19-.72,1.5-.39.2-.8.3-.87.3ZM261.31,27.27c-.38,0-.72,0-.72.54v1.31c0,.58.3.58.72.58h2.88c.37,0,.7,0,.7-.56v-1.31c0-.56-.31-.56-.7-.56h-2.88ZM261.27,24.79c-.33,0-.7,0-.7.6,0,.94,0,1.16.02,1.22.05.41.4.41.67.41h2.92c.34,0,.7,0,.7-.58v-1.21c-.08-.44-.38-.44-.7-.44h-2.92ZM255.3,39.37c-.15,0-.31,0-.31-.57,0-.14.02-.66.04-.84.06-1.05.08-1.65.08-2.48,0-.21,0-2.03-.06-2.73,0-.03-.01-.15-.03-.28-.01-.13-.03-.27-.03-.32.01,0,.03,0,.05,0,.15,0,.43.11.64.19.41.16.67.25.81.25h3.09c.29,0,.41-.05.56-.23.26-.29.38-.35.45-.35.19.02,1.03.62,1.03.87,0,.05-.03.09-.07.14l-.06.08c-.18.23-.25.32-.27.63-.05.4-.02,2.3,0,3.44v.69c0,.51,0,.74-.14.92-.23.26-.57.38-.72.38-.25,0-.29-.18-.29-.57,0-.62-.4-.62-.8-.62h-2.46c-.52,0-.69.13-.74.58-.07.52-.34.8-.77.8ZM256.75,35.28c-.37,0-.7,0-.7.56v1.37c0,.52.35.52.7.52h2.72c.47,0,.7-.03.7-.66,0-1.28-.02-1.37-.02-1.4-.08-.39-.28-.39-.67-.39h-2.72ZM256.71,32.84c-.6,0-.66.15-.66.78v.99c.09.42.36.42.66.42h2.8c.29,0,.57,0,.65-.39v-1.16c0-.61-.23-.64-.65-.64h-2.8Z"/>
      <path d="M270.28,38.87c-1.07,0-2-3.2-2-5.13,0-1.24.16-1.82.82-4.25.35-1.27.35-1.77.35-2.14,0-.62-.11-1.17-.21-1.45-.05-.14-.11-.28-.11-.32.84.05,1.62,1.78,1.62,2.43,0,.19,0,.2-.36.84-.24.46-1.55,3.37-1.55,5.19,0,.66.23,1.33.66,1.33.46,0,.66-.45,1.09-1.64.03-.09.07-.19.1-.27-.01.14-.09.56-.16.97-.14.8-.29,1.71-.29,2.01s.16.7.3,1.03c.17.34.25.65.25.88,0,.33-.27.53-.51.53ZM277.66,38.08c-1.86,0-2.58-.46-3-.85-.36-.36-.57-.69-.57-.89,0,0,0-.01,0-.01.03,0,.15.08.21.12.07.04.13.08.16.1.6.31,1.44.35,2.19.35.52,0,1.24,0,1.74-.06.13,0,.53-.05.91-.08.39-.04.77-.07.82-.07.73,0,.77.44.77.53,0,.59-.32.87-3.23.87ZM277.66,28.38c-2.18,0-3.29-1.14-3.33-1.33.03.05.1.07.19.1.1.03.21.06.33.08.46.1,1.01.12,1.38.12,1.03,0,1.96-.21,2.23-.3.47-.17.59-.22.71-.22.37.05.79.33.79.72,0,.61-1.24.83-2.3.83Z"/>
      <path d="M289.48,38.91c-.61,0-.79-.56-1-1.15l-.04-.12-.06-.14c-.05-.13-.14-.33-.17-.43.05.03.16.06.38.13.24.05.76.15,1.06.15.63,0,1.42-.29,2.02-2.52.19-.68.62-2.37.62-3.49,0-1.63-1.1-1.63-1.51-1.63-.62,0-1.83.29-2.02.53-.09.11-.11.19-.29.79l-.03.12c-.85,2.89-2.74,7.48-4.19,7.48-.43,0-.49-.31-.49-.49,0-.36.11-.49,1.29-1.79.56-.62,1.39-1.55,2.47-4.53.06-.14.29-.8.29-.98s-.11-.3-.28-.3c-.25,0-.83.2-1.44.42-.5.18-1.07.38-1.24.38-.69,0-1.54-1.19-1.54-1.54.01,0,.02,0,.03,0,.07,0,.17.03.3.06.46.11.86.21,1.01.21.56,0,3.31-.57,3.4-.61.42-.3.44-2.25.44-2.47,0-.54-.04-1.16-.53-1.77l-.09-.11c-.12-.15-.21-.25-.22-.27,0,0,.01,0,.03,0,.03,0,.09-.01.15-.01,1.29,0,1.96.73,1.96,1.13,0,0-.05.16-.11.37-.31,1.09-.65,2.28-.65,2.56,0,.19.14.32.36.32.04,0,.25-.02.49-.04.28-.03.6-.06.69-.06.93,0,2.5.31,2.5,2.4,0,1.53-.56,4.93-1.67,6.28-.6.7-1.35,1.16-1.91,1.16ZM297.02,33.75c-.09,0-.47-.2-.7-.31-.26-.13-.49-.25-.61-.28-.03-.01-.12-.03-.28-.05-.04,0-.09-.01-.14-.02.11-.06.26-.15.35-.21.12-.07.22-.13.26-.17.73-.55.86-.66.86-1.26,0-.17-.05-1.68-1.69-2.41-.17-.08-.37-.18-.41-.22,2.52.08,3.34,2.58,3.34,3.45,0,.21-.29,1.48-.99,1.49Z"/>
    </g>
    <g>
      <path class="cls-1" d="M93.02,44.25c.14-.08.29-.16.37-.2,3.5-2.06,6.47-4.82,8.18-7.58,2.03-3.28,2.59-7.26,2.59-7.61,0-.54-.41-.87-1.06-.87h-4.19c-2.71,0-3.65.06-3.96.1h0c-.06,0-.22.03-.38.05-.11.02-.22.04-.26.04-.02,0-.06-.04-.12-.13l-.62-.72c.35.02,1.01.09,1.18.11,1.64.07,2.93.1,4.31.1h4.16c.3,0,.79,0,1.03-.4.2-.34.21-2.31.21-6.38,0-.87,0-1.56-1.12-1.56h-5.66c-2.71,0-3.65.06-3.96.1-.12.03-.58.06-.67.06,0,0-.03-.02-.1-.11l-.6-.7c.14,0,.32.02.49.04.3.02.61.05.72.05l.45.02c1.32.06,2.51.11,3.84.11h15.8c1.35,0,1.76,0,2.16-.62,1.04-1.63,1.11-1.73,1.32-1.73.39.08,2.51,2.13,2.51,2.57,0,.22-.72.22-1.47.22h-10.26c-1.02,0-1.06.64-1.09,1.15l-.04,1.22c-.06,1.67-.15,4.34-.15,4.94,0,1.03.56,1.03.9,1.03h4.54c1.35,0,1.76,0,2.16-.62l.07-.11c.79-1.21.89-1.34,1.09-1.34.4.03,2.67,1.92,2.76,2.3,0,.21-.68.21-1.48.21h-7.76c-.19,0-1.31.16-1.88.16-.59,0-.69.71-.75,1.13-.47,2.72-1.1,6.4-5.05,10.28-3.21,3.13-6.95,4.39-8.19,4.69Z"/>
      <path class="cls-3" d="M119.86,38.69c-.45-.27-1.16-.35-1.95-.53-.31.3-.98.72-1.82.71.72-.17,1.14-.53,1.44-.8-.9-.21-1.92-.45-2.93-.8-1.6.93-2.57.11-2.57.11.88.49,1.8.17,2.4-.18-1.13-.41-2.23-.95-3.16-1.75-.8-.26-1.13-.74-1.13-.74.23.24.53.38.83.47-.57-.55-1.06-1.2-1.42-1.99,0,0,.42-.2.79.49,0,0-.1-.68-1.14-.87,0,0,.06-.49.59-.09.54.4.63.78,1.01.64,0,0-.4-.12-.84-.77-.44-.65-1.15-.61-1.15-.61,0,0-.57-1.21-.79-1.8,1.08,7.05,4.46,8.97,7.07,9.62-.46.09-6.05-.1-7.25-10.17l-.11-2.79-.51-.09.19,2.39s.25,2.65-.26,3.75c-.57,1.22-.41,2.11.19,3.23.07-.81.26-1.29.26-1.29-.13.4-.12,1.06-.08,1.62.2.36.39.67.5.9.2.42,1.75,2.61,3.85,4.34-1.01-1.82-.81-2.8-.81-2.8.04,1.11.69,2.32,1.22,3.12.95.73,1.99,1.34,3.06,1.66-.44-.46-.9-1.05-1.14-1.72-.55-1.51-1.16-2.67.03-.25.51,1.03,1.01,1.66,1.42,2.05,1.19.29,2.42.19,3.58-.54-1.95-.97-2.19-2.16-2.19-2.16.61,1.18,1.68,1.77,2.37,2.04.61-.42,2.64-.93,4.31-2.77,0,0-1.84-.44-3.87-1.67Z"/>
    </g>
  </g>
  <g>
    <path class="cls-1" d="M138.98,58.01c-9.23-4.66-18.91-8.49-28.95-10.98-5.01-1.28-10.09-2.25-15.21-2.96-5.12-.73-10.27-1.19-15.43-1.35-10.32-.32-20.69.51-30.78,2.69-5.05,1.06-10.03,2.46-14.88,4.26-2.42.9-4.81,1.89-7.14,3-2.34,1.09-4.64,2.28-6.81,3.69l-.03-.05c4.29-2.92,9.02-5.12,13.85-7,4.84-1.87,9.82-3.36,14.89-4.48,5.07-1.09,10.21-1.86,15.38-2.28,5.17-.41,10.36-.5,15.54-.3,5.18.19,10.35.69,15.47,1.45,5.13.74,10.22,1.74,15.23,3.05,10.05,2.57,19.71,6.48,28.91,11.2l-.03.05Z"/>
    <path class="cls-1" d="M293.81,61.32c-2.05,1.97-4.42,3.6-6.86,5.11-2.45,1.5-5.01,2.84-7.64,4.04-5.26,2.41-10.77,4.32-16.4,5.81-11.27,3-22.95,4.46-34.63,4.98-5.85.28-11.7.22-17.55.04l-4.38-.18-4.38-.28c-2.92-.16-5.84-.44-8.74-.81-5.8-.78-11.55-2.02-17.08-3.86-2.77-.9-5.47-1.99-8.14-3.12-2.67-1.13-5.28-2.37-7.84-3.7l.03-.05c10.52,4.77,21.53,8.65,33.09,10.3,2.89.4,5.78.73,8.7.88l4.37.29,4.38.19c5.84.19,11.69.27,17.52,0,11.67-.47,23.33-1.89,34.59-4.85,5.63-1.47,11.14-3.36,16.39-5.75,2.63-1.19,5.19-2.52,7.64-4.01,2.44-1.5,4.82-3.12,6.87-5.07l.05.04Z"/>
  </g>
  <path class="cls-4" d="M308.17,36.44s0,0,0,0h0c.05.12.1.26.14.39.04.13.09.26.13.39.08.26.15.53.22.8.13.53.23,1.06.31,1.6-.28.21-.59.54-.92,1.06,0,0,.48-.26.86-.14,0,0-.98.37-1.35,1,0,0-1.4,2.35-1.45,2.98,0,0,.85-.62,1.45-.33,0,0-1.05.24-1.8,1,0,0-1.72,3.06-2.79,4.07,0,0,1.49-.42,1.99-.76,0,0-1.19,1.06-2.26,1.45,0,0-.84.36-1.88,1.67,0,0-2.19,2.41-3.48,2.45,0,0,1.27.54,2.74-.24,0,0-.93.99-2.45.94,0,0-.8-.04-1.57.4-.42.24-.84.61-1.12,1.2,0,0,1.13.6,2.12.31-.14.04-1.31.38-2.53.15,0,0-.89,1.18-1.17,2.44,0,0,3.68,3.44,6.03.59,0,0-.14.79-1.13,1.52,0,0,1.27-.45,2.06-.34,0,0,4.01.71,4.41-2.32,0,0,.22.72-.07,1.6,0,0,2.28-2.73,3.34-3.5,0,0,2.7-1.55,1.47-5.18.04.05.96,1.32.86,2.44,0,0,3.3-4.05.17-7.59,0,0,.79.57,1.13,1.16,0,0,.74-2.43-.02-3.99,0,0-.26-.59-1.04-1.41,0,0,.77.31,1.16,1.02,0,0-.5-3.79-1.74-3.99.13,1.13.16,2.27.06,3.4-.09,1.14-.3,2.26-.63,3.34-.33,1.09-.77,2.13-1.31,3.12-.27.49-.57.97-.89,1.44-.32.46-.66.91-1.03,1.34-.37.43-.74.85-1.14,1.24-.2.2-.4.39-.61.58-.1.1-.21.19-.31.28-.11.09-.21.19-.32.28-1.72,1.45-3.64,2.64-5.65,3.63,1.99-1.03,3.88-2.27,5.55-3.75.11-.09.21-.19.31-.28.1-.1.21-.19.31-.29.2-.2.4-.39.59-.59.39-.4.75-.82,1.1-1.25.35-.43.67-.88.98-1.34.3-.46.58-.94.84-1.43.51-.98.92-2.02,1.22-3.09.29-1.07.47-2.17.54-3.28.06-1.1.02-2.21-.14-3.31,0,0,0,0,0,0-.06-.48-.15-.96-.25-1.43-.06-.28-.13-.56-.21-.84-.04-.14-.08-.28-.13-.42-.05-.14-.09-.27-.15-.42-.06-.16-.24-.24-.39-.18-.16.06-.23.23-.17.39Z"/>
</svg>